<svg width="9" height="9" viewBox="0 0 9 9" fill="none" xmlns="http://www.w3.org/2000/svg">
<path d="M4.5 0C2.01472 0 0 2.01472 0 4.5C0 6.98528 2.01472 9 4.5 9C6.98528 9 9 6.98528 9 4.5C9 2.01472 6.98528 0 4.5 0ZM2.92617 2.41687C3.22877 2.41765 3.39025 2.44513 3.65413 2.53664C4.11853 2.69769 4.51402 3.03074 4.7857 3.48937C5.20846 4.29583 5.57422 5.24887 5.87155 5.87648C6.26968 6.42513 7.08284 6.39975 7.3828 6.06727C8.07245 5.30287 7.02528 4.87709 6.65718 4.75383C6.24497 4.62498 5.76111 4.40242 5.57764 4.02328C5.24135 3.06552 5.85964 2.43772 6.65718 2.4593C6.90461 2.42375 7.37495 2.56712 7.68327 3.06563L7.28179 3.28337C7.11157 3.10317 6.86896 2.95357 6.63585 2.95149C6.11673 2.87838 5.83249 3.54055 6.14624 3.90844C6.2521 4.01743 6.38143 4.07735 6.87022 4.2429C7.56854 4.47756 8.07773 4.70905 8.11616 5.42884C8.16358 6.40053 7.19846 6.98318 6.22054 6.75775C5.82671 6.65083 5.50123 6.371 5.29429 5.96181C4.9305 5.25253 4.67599 4.38055 4.30125 3.75469C3.98673 3.25489 3.48505 2.98048 2.88656 2.98125C2.15304 2.97138 1.51084 3.55091 1.30289 4.13531C1.14793 4.75788 1.29998 5.38952 1.73368 5.81625C2.75123 6.71827 3.87395 6.12752 4.32047 5.49211C4.33934 5.49211 4.57313 5.99485 4.57313 6.03539C4.26931 6.40105 3.69895 6.7176 3.28009 6.7957C3.05666 6.83467 2.69733 6.83506 2.48555 6.79664C1.66611 6.64795 0.983018 6.01456 0.75258 5.19C0.41055 3.81316 1.31024 2.71435 2.34609 2.47406C2.51941 2.4283 2.60466 2.41922 2.86359 2.41711C2.88445 2.41692 2.90531 2.41684 2.92617 2.41687Z" fill="white"/>
</svg>
