<svg width="9" height="9" viewBox="0 0 9 9" fill="none" xmlns="http://www.w3.org/2000/svg">
<path d="M7.155 4.005C5.715 3.15 3.3075 3.06 1.935 3.4875C1.71 3.555 1.485 3.42 1.4175 3.2175C1.35 2.9925 1.485 2.7675 1.6875 2.7C3.285 2.2275 5.9175 2.3175 7.5825 3.3075C7.785 3.42 7.8525 3.69 7.74 3.8925C7.6275 4.05 7.3575 4.1175 7.155 4.005ZM7.11 5.265C6.9975 5.4225 6.795 5.49 6.6375 5.3775C5.4225 4.635 3.5775 4.41 2.16 4.86C1.98 4.905 1.7775 4.815 1.7325 4.635C1.6875 4.455 1.7775 4.2525 1.9575 4.2075C3.6 3.7125 5.625 3.96 7.02 4.815C7.155 4.8825 7.2225 5.1075 7.11 5.265ZM6.57 6.5025C6.48 6.6375 6.3225 6.6825 6.1875 6.5925C5.13 5.94 3.8025 5.805 2.2275 6.165C2.07 6.21 1.935 6.0975 1.89 5.9625C1.845 5.805 1.9575 5.67 2.0925 5.625C3.8025 5.2425 5.2875 5.4 6.4575 6.12C6.615 6.1875 6.6375 6.3675 6.57 6.5025ZM4.5 0C3.90905 0 3.32389 0.116396 2.77792 0.342542C2.23196 0.568688 1.73588 0.900156 1.31802 1.31802C0.474106 2.16193 0 3.30653 0 4.5C0 5.69347 0.474106 6.83807 1.31802 7.68198C1.73588 8.09984 2.23196 8.43131 2.77792 8.65746C3.32389 8.8836 3.90905 9 4.5 9C5.69347 9 6.83807 8.52589 7.68198 7.68198C8.52589 6.83807 9 5.69347 9 4.5C9 3.90905 8.8836 3.32389 8.65746 2.77792C8.43131 2.23196 8.09984 1.73588 7.68198 1.31802C7.26412 0.900156 6.76804 0.568688 6.22208 0.342542C5.67611 0.116396 5.09095 0 4.5 0Z" fill="white"/>
</svg>
