<svg width="96" height="96" viewBox="0 0 96 96" fill="none" xmlns="http://www.w3.org/2000/svg">
<path d="M38.6701 20.3718C40.8325 20.3718 42.9098 20.7763 44.9022 21.5854C46.8945 22.3944 48.6681 23.5485 50.2231 25.0476L57.7334 32.4356C58.1323 32.828 58.1316 33.4714 57.7318 33.8629L36.0882 55.0603C35.7 55.4404 35.0794 55.4411 34.6904 55.0618L27.117 47.6773C25.5864 46.1782 24.408 44.453 23.5819 42.5018C22.7558 40.5505 22.3428 38.5041 22.3428 36.3625C22.3428 34.6254 22.61 32.9478 23.1445 31.3297C23.5891 29.9839 24.227 28.7121 25.0582 27.5144C25.3478 27.0971 25.3129 26.528 24.9506 26.172L14.4326 15.8393C14.0332 15.447 14.0337 14.8032 14.4337 14.4115L16.2867 12.5967C16.6751 12.2163 17.2961 12.2158 17.685 12.5956L28.2925 22.9526C28.6441 23.2959 29.1912 23.3298 29.6006 23.0581C30.8136 22.2528 32.1117 21.631 33.4949 21.1927C35.1471 20.6692 36.8721 20.3956 38.6701 20.3718ZM27.0077 36.3625C27.0077 37.8854 27.2993 39.3369 27.8824 40.7171C28.4655 42.0972 29.3159 43.3346 30.4335 44.4292L34.6903 48.5982C35.0791 48.979 35.701 48.979 36.0897 48.5982L51.1337 33.8645C51.5341 33.4724 51.5341 32.8278 51.1337 32.4356L46.9066 28.2957C45.8133 27.2249 44.562 26.404 43.1528 25.8329C41.7436 25.2618 40.2494 24.9644 38.6701 24.9406C37.0665 24.9406 35.5601 25.238 34.1509 25.8329C32.7417 26.4278 31.5026 27.2368 30.4335 28.2601C29.3645 29.2833 28.5262 30.4968 27.9188 31.9008C27.3114 33.3047 27.0077 34.792 27.0077 36.3625ZM67.7074 68.0474C67.3558 67.7041 66.8088 67.6702 66.3994 67.942C65.1864 68.7472 63.8883 69.369 62.5051 69.8073C60.8529 70.3308 59.1278 70.6044 57.3299 70.6282C55.1675 70.6282 53.0901 70.2237 51.0978 69.4147C49.1055 68.6056 47.3318 67.4515 45.7768 65.9524L38.2666 58.5644C37.8677 58.172 37.8684 57.5286 38.2682 57.1371L59.9118 35.9397C60.2999 35.5596 60.9206 35.5589 61.3096 35.9382L68.8829 43.3227C70.4136 44.8218 71.592 46.547 72.4181 48.4983C73.2442 50.4495 73.6572 52.4959 73.6572 54.6375C73.6572 56.3746 73.39 58.0522 72.8554 59.6703C72.4109 61.0162 71.773 62.2879 70.9418 63.4856C70.6522 63.9029 70.6871 64.472 71.0494 64.828L81.5674 75.1607C81.9668 75.5531 81.9663 76.1968 81.5663 76.5885L79.7133 78.4034C79.3249 78.7837 78.7039 78.7842 78.315 78.4044L67.7074 68.0474ZM49.0933 62.7043C50.1867 63.7751 51.438 64.596 52.8472 65.1671C54.2564 65.7382 55.7506 66.0357 57.3299 66.0595C58.9335 66.0595 60.4399 65.762 61.8491 65.1671C63.2583 64.5722 64.4852 63.7513 65.53 62.7043C66.5748 61.6573 67.413 60.4437 68.0447 59.0635C68.6764 57.6834 68.9923 56.2081 68.9923 54.6375C68.9923 53.1146 68.7007 51.6631 68.1176 50.2829C67.5345 48.9028 66.6841 47.6654 65.5665 46.5708L61.3096 42.4018C60.9209 42.021 60.299 42.021 59.9102 42.4018L44.8663 57.1355C44.4659 57.5277 44.4659 58.1723 44.8663 58.5644L49.0933 62.7043Z" fill="#31FF9C"/>
</svg>
