<svg width="96" height="96" viewBox="0 0 96 96" fill="none" xmlns="http://www.w3.org/2000/svg">
<path d="M43.2916 54.0246C42.9004 54.4115 42.2703 54.4097 41.8813 54.0207L34.2346 46.3741C33.8441 45.9836 33.211 45.9836 32.8204 46.3741L31.2253 47.9693C30.8353 48.3592 30.2034 48.3599 29.8126 47.9709L22.9333 41.1218C21.5296 39.7182 20.449 38.1029 19.6915 36.2759C18.934 34.4489 18.5552 32.5328 18.5552 30.5276C18.5552 28.9011 18.8003 27.3303 19.2904 25.8153C19.6938 24.5687 20.2705 23.39 21.0208 22.2792C21.3005 21.865 21.2669 21.3069 20.9144 20.9526L15.6159 15.6273C15.2271 15.2365 15.2279 14.6047 15.6177 14.2149L17.2149 12.6177C17.6047 12.2279 18.2365 12.2271 18.6273 12.6159L23.9542 17.9161C24.3078 18.2679 24.8645 18.302 25.2789 18.0245C26.3716 17.2928 27.5393 16.7259 28.7818 16.3239C30.2969 15.8337 31.8788 15.5775 33.5275 15.5552C35.5105 15.5552 37.4154 15.934 39.2424 16.6915C41.0694 17.449 42.6959 18.5296 44.1218 19.9333L50.9708 26.8126C51.3599 27.2034 51.3592 27.8354 50.9693 28.2253L49.3741 29.8205C48.9836 30.211 48.9836 30.8442 49.3741 31.2347L57.0207 38.8813C57.4097 39.2703 57.4114 39.9004 57.0246 40.2916L55.4232 41.9108C55.0333 42.305 54.3971 42.3068 54.0051 41.9147L46.3328 34.2425C45.9423 33.852 45.3091 33.852 44.9186 34.2425L37.2425 41.9187C36.852 42.3092 36.852 42.9423 37.2425 43.3329L44.9147 51.0051C45.3068 51.3971 45.305 52.0333 44.9108 52.4232L43.2916 54.0246ZM22.833 30.5276C22.833 31.9535 23.1004 33.3126 23.6351 34.6049C24.1698 35.8971 24.9496 37.0557 25.9745 38.0806L29.8126 41.9187C30.2031 42.3092 30.8363 42.3092 31.2268 41.9187L44.9186 28.2268C45.3091 27.8363 45.3091 27.2031 44.9186 26.8126L41.0806 22.9746C40.0779 21.9719 38.9305 21.2033 37.6383 20.6685C36.346 20.1338 34.9758 19.8553 33.5275 19.833C32.057 19.833 30.6757 20.1115 29.3834 20.6685C28.0912 21.2256 26.9549 21.9831 25.9745 22.9411C24.9942 23.8992 24.2255 25.0355 23.6685 26.35C23.1115 27.6646 22.833 29.0571 22.833 30.5276ZM73.0456 73.0838C72.692 72.732 72.1353 72.6978 71.7208 72.9754C70.6281 73.7071 69.4605 74.2739 68.2179 74.6759C66.7029 75.1661 65.121 75.4223 63.4722 75.4446C61.4893 75.4446 59.5843 75.0658 57.7573 74.3083C55.9304 73.5508 54.3039 72.4702 52.878 71.0665L46.0289 64.1872C45.6399 63.7964 45.6406 63.1645 46.0305 62.7745L65.7745 43.0305C66.1644 42.6406 66.7964 42.6399 67.1872 43.029L74.0665 49.878C75.4702 51.2816 76.5508 52.897 77.3083 54.7239C78.0658 56.5509 78.4446 58.467 78.4446 60.4723C78.4446 62.0987 78.1995 63.6695 77.7093 65.1845C77.306 66.4311 76.7292 67.6098 75.979 68.7207C75.6993 69.1348 75.7328 69.6929 76.0853 70.0472L81.3839 75.3725C81.7727 75.7633 81.7719 76.3951 81.3821 76.7849L79.7849 78.3821C79.3951 78.7719 78.7633 78.7727 78.3725 78.3839L73.0456 73.0838ZM55.9192 68.0253C56.9218 69.0279 58.0693 69.7966 59.3615 70.3313C60.6538 70.866 62.024 71.1445 63.4722 71.1668C64.9427 71.1668 66.3241 70.8883 67.6164 70.3313C68.9086 69.7743 70.0338 69.0056 70.9918 68.0253C71.9499 67.0449 72.7185 65.9086 73.2978 64.6164C73.8771 63.3241 74.1668 61.9428 74.1668 60.4723C74.1668 59.0463 73.8994 57.6872 73.3647 56.395C72.8299 55.1027 72.0501 53.9441 71.0252 52.9192L67.1872 49.0812C66.7966 48.6907 66.1635 48.6907 65.773 49.0812L52.0811 62.773C51.6906 63.1635 51.6906 63.7967 52.0811 64.1872L55.9192 68.0253Z" fill="#FF314A"/>
</svg>
