<svg width="88" height="87" viewBox="0 0 88 87" fill="none" xmlns="http://www.w3.org/2000/svg">
<path d="M19.5752 67.5046L40.0706 67.4349L84.8046 23.1281C86.5602 21.3726 87.5262 19.0411 87.5262 16.5611C87.5262 14.081 86.5602 11.7495 84.8046 9.99399L77.4388 2.6281C73.9276 -0.883001 67.8018 -0.864424 64.3186 2.61417L19.5752 46.9303V67.5046ZM70.8717 9.19517L78.2515 16.5471L70.8345 23.8944L63.4686 16.5332L70.8717 9.19517ZM28.8638 50.8036L56.8691 23.0631L64.235 30.429L36.2344 58.1602L28.8638 58.1834V50.8036Z" fill="#C4C4C4"/>
<path d="M10.2886 86.0215H75.3091C80.4318 86.0215 84.5977 81.8556 84.5977 76.7329V36.4759L75.3091 45.7646V76.7329H24.9554C24.8346 76.7329 24.7092 76.7793 24.5885 76.7793C24.4352 76.7793 24.282 76.7375 24.1241 76.7329H10.2886V11.7124H42.0883L51.3769 2.42381H10.2886C5.16595 2.42381 1 6.58977 1 11.7124V76.7329C1 81.8556 5.16595 86.0215 10.2886 86.0215Z" fill="#C4C4C4"/>
</svg>
