<svg width="109" height="99" viewBox="0 0 109 99" fill="none" xmlns="http://www.w3.org/2000/svg">
<path d="M0 26.0059C0 35.8341 3.58792 44.7767 9.84179 51.0305C11.6267 52.8154 13.4115 53.7101 15.201 55.495H16.0866C16.9813 55.495 16.9767 54.6048 16.9767 54.6048C15.1919 51.0305 14.3062 46.5661 14.3062 42.0971C14.3062 32.2689 18.7662 22.4362 25.0246 16.1823V1.89424C25.0246 0.999535 24.1299 1.00408 24.1299 1.00408H10.732C3.58337 8.15266 0 16.1823 0 26.0059ZM11.6221 83.1855C22.3405 93.0137 35.7384 98.3683 51.8204 98.3683C83.9845 98.3683 109 72.4717 109 41.2069C109 26.0196 102.742 11.7224 92.9134 1.89424H92.0232C92.0232 0.999535 91.1331 1.89424 91.1331 1.89424C93.8127 9.04283 95.5975 16.1869 95.5975 24.2302C95.5975 57.2844 68.7926 84.9659 34.8437 84.9659C26.8049 84.9659 19.6563 83.181 12.5123 80.5014C11.6176 80.5014 11.6221 81.4052 11.6221 82.2954V83.1855ZM38.418 28.6946C38.418 31.3742 40.2119 34.0447 41.9968 35.8296H43.7771C59.8546 41.1887 65.2229 34.953 65.2229 27.8044V17.9627C65.2229 17.0725 66.113 17.0725 66.113 17.0725H69.6873C70.582 17.0725 70.5775 16.1823 70.5775 16.1823C69.6873 10.8232 67.0168 5.47308 63.4425 1.00408H52.7106C52.7106 0.109368 51.8204 1.00408 51.8204 1.89424V15.2922C51.8204 22.4407 46.4612 27.7999 39.3127 28.6946C39.3127 27.7999 38.4225 28.6946 38.4225 28.6946H38.418Z" fill="#FFFF64"/>
</svg>
