<svg width="87" height="87" viewBox="0 0 87 87" fill="none" xmlns="http://www.w3.org/2000/svg">
<path d="M7.24854 5C7.24854 3.34315 8.59168 2 10.2485 2H24.3619C26.0187 2 27.3618 3.34315 27.3618 5V84C27.3618 85.6569 26.0187 87 24.3618 87H10.2485C8.59168 87 7.24854 85.6569 7.24854 84V5Z" fill="white"/>
<path d="M59.7946 5C59.7946 3.34315 61.1377 2 62.7946 2H76.9079C78.5647 2 79.9079 3.34315 79.9079 5V84C79.9079 85.6569 78.5647 87 76.9079 87H62.7946C61.1377 87 59.7946 85.6569 59.7946 84V5Z" fill="white"/>
</svg>
