<svg width="322" height="110" viewBox="0 0 322 110" fill="none" xmlns="http://www.w3.org/2000/svg">
<g style="mix-blend-mode:overlay" opacity="0.5">
<g style="mix-blend-mode:overlay">
<path d="M153.962 82.2238C156.49 83.6571 159.192 84.3435 161.739 85.3608C163.108 85.9076 164.217 86.6168 165.062 87.8136C165.425 88.3289 165.822 88.7833 165.349 89.3388C164.915 89.8495 164.577 90.446 163.613 90.3319C161.151 90.0385 159.136 88.6026 156.812 87.9454C154.327 87.2455 151.96 86.1396 149.489 85.3742C148.216 84.9795 147.144 84.3235 146.193 83.5114C144.691 82.2281 144.979 80.5688 146.773 79.6839C148.276 78.9403 149.821 78.2819 151.331 77.545C152.967 76.7441 153.395 75.5341 152.787 73.9393C151.744 71.1982 150.703 68.4541 149.772 65.6732C149.191 63.9348 150.79 62.6444 152.873 63.5221C156.001 64.8451 159.238 64.5724 162.446 64.7815C163.725 64.8635 164.715 65.2577 165.547 66.1627C166.194 66.8652 166.693 67.7061 166.208 68.577C165.77 69.3658 164.931 69.7758 163.91 69.6832C161.719 69.4874 159.522 69.3166 157.327 69.1744C155.699 69.0682 155.31 69.6137 155.889 71.1147C156.553 72.8272 157.227 74.5372 157.897 76.2469C158.923 78.8699 158.661 79.6834 156.202 80.8354C155.444 81.1909 154.71 81.5102 153.963 82.2207L153.962 82.2238Z" fill="white"/>
<path d="M226.597 91.4661C224.708 91.364 223.451 89.8098 222.968 87.1485C222.283 83.3632 220.996 79.7292 219.993 76.0232C219.612 74.6085 219.368 73.1464 219.198 71.6895C219.076 70.6153 219.31 69.746 220.68 69.3505C222.073 68.9503 222.637 70.055 222.857 70.6458C223.557 72.5347 224.873 73.1854 226.727 73.6171C228.555 74.0439 230.219 75.0254 232.142 75.3228C233.815 75.5807 235.079 75.3613 235.891 73.7667C236.394 72.78 237.181 72.2368 238.407 72.429C239.608 72.6164 239.861 73.6111 240.31 74.4264C240.914 75.5212 239.945 76.4029 239.485 77.0447C236.601 81.0576 234.018 85.3065 230.61 88.9227C229.554 90.0419 228.663 91.7513 226.594 91.4628L226.597 91.4661ZM226.749 78.0049C225.927 77.967 224.926 77.588 225.221 78.8701C225.59 80.4736 226.036 82.0699 226.609 83.6147C226.931 84.4909 227.51 84.7807 228.35 83.849C229.201 82.9021 229.941 81.8433 230.816 80.9677C231.853 79.9262 230.813 79.2819 230.466 79.2643C229.03 79.184 228.021 77.9948 226.752 78.0051L226.749 78.0049Z" fill="white"/>
<path d="M183.261 73.4494C185.942 73.6822 186.01 73.6868 186.214 71.0161C186.355 69.1537 187.066 67.4445 187.525 65.6832C187.792 64.6676 188.588 63.4893 190.063 63.8126C191.062 64.0302 192.51 67.0082 191.962 67.9063C190.613 70.1026 190.731 72.6786 190.271 75.0028C189.551 78.6183 188.585 82.2546 188.462 85.9904C188.43 86.9242 188.06 87.5248 187.169 87.9787C184.353 89.4095 180.479 89.0058 177.911 86.9941C175.025 84.7328 174.384 81.8518 175.33 78.5113C176.126 75.7043 180.121 73.1818 183.26 73.4557L183.261 73.4494ZM184.693 80.2052C184.822 78.6171 184.192 77.8683 183.061 78.2045C181.063 78.7937 179.422 80.5967 179.7 82.5355C179.924 84.0942 181.368 84.8201 182.722 83.9998C184.26 83.0689 184.117 81.326 184.693 80.2084L184.693 80.2052Z" fill="white"/>
<path d="M278.785 84.53C277.792 90.0493 276.356 95.3229 270.508 98.002C269.81 98.3238 269.127 98.7446 268.389 98.9055C266.82 99.2398 265.971 98.0711 265.226 97.0583C264.464 96.0189 265.553 95.4111 266.182 94.8727C267.886 93.4156 270.332 92.9174 271.382 90.5771C272.713 87.6205 274.326 84.7278 273.984 81.3868C273.649 78.1285 272.744 75.008 269.814 72.9333C268.528 72.0222 267.002 71.6511 265.496 71.2624C264.102 70.9004 263.379 70.1388 263.566 68.6339C263.696 67.5898 264.164 67.1604 265.256 67.2011C269.545 67.3679 272.843 69.4427 275.318 72.656C277.977 76.1065 279.247 80.0872 278.778 84.5359L278.785 84.53Z" fill="white"/>
<path d="M205.444 65.4798C207.392 65.3898 208.64 65.6785 209.262 67.6758C209.76 69.2725 209.143 69.5714 207.927 69.7118C201.806 70.4241 198.448 75.4099 199.753 81.4486C200.265 83.8241 200.853 85.9772 202.701 87.6957C203.575 88.5119 204.873 88.7913 205.491 89.8998C205.875 90.5872 206.809 91.1451 206.245 92.077C205.693 92.9844 204.81 93.2807 203.713 93.091C201.374 92.6922 199.89 91.059 198.619 89.3868C196.381 86.4524 195.356 83.1274 195.098 79.3622C194.756 74.3388 196.65 70.5484 200.172 67.2405C201.738 65.7675 203.512 65.0648 205.444 65.4766L205.444 65.4798Z" fill="white"/>
<path d="M264.735 89.9184C264.464 92.9957 261.593 95.4157 258.52 95.1559C255.678 94.9151 252.348 91.6333 252.637 89.3574C253.007 86.4387 256.287 83.3608 258.875 83.5048C262.22 83.6918 265.015 86.7501 264.735 89.9184ZM258.576 90.5363C259.757 90.6812 260.38 90.0918 260.615 89.0233C260.803 88.1698 259.957 87.9659 259.54 87.9528C258.531 87.9242 257.643 88.3878 257.382 89.4639C257.148 90.4281 257.894 90.4797 258.576 90.5331L258.576 90.5363Z" fill="white"/>
<path d="M305.158 73.4188C305.344 74.8263 304.3 75.9178 304.029 77.2684C303.475 80.0288 302.691 82.7512 301.88 85.4528C301.425 86.9614 300.067 86.2983 299.173 86.0974C297.886 85.806 297.014 83.7123 297.533 82.4896C298.475 80.2714 298.642 77.8574 299.385 75.5876C299.841 74.1929 300.44 72.8491 300.697 71.3585C300.863 70.4054 301.85 69.4459 303.096 69.9526C304.568 70.5477 305.563 71.6126 305.164 73.4224L305.158 73.4188Z" fill="white"/>
<path d="M289.28 81.5428C290.23 78.8888 290.209 75.4625 291.427 72.2736C291.895 71.0505 292.514 70.5304 293.776 70.8073C294.996 71.0751 295.469 72.0217 295.513 73.0968C295.554 74.1369 295.576 75.2674 295.214 76.2133C294.181 78.9089 294.233 81.746 293.857 84.5282C293.69 85.7785 293.583 87.1056 291.919 87.1866C290.43 87.2577 289.029 85.5037 289.121 83.8846C289.156 83.2956 289.203 82.7075 289.283 81.543L289.28 81.5428Z" fill="white"/>
<path d="M212.942 75.5863C210.529 75.369 209.667 73.6334 210.964 71.601C211.303 71.0679 211.742 70.5828 212 70.0156C212.676 68.5285 213.796 67.9766 215.281 68.6611C216.56 69.2492 217.065 71.2606 216.297 72.4946C215.479 73.8105 215.25 75.8155 212.942 75.5863Z" fill="white"/>
<path d="M248.944 73.404C248.701 75.6578 247.523 76.9078 246.6 78.248C246.221 78.8005 245.229 78.713 244.78 78.2677C244.057 77.5568 242.808 77.1289 243.026 75.7462C243.295 74.0508 244.343 72.7602 245.478 71.6212C245.734 71.3637 246.578 70.4196 247.475 71.1362C248.387 71.8634 249.152 72.6246 248.944 73.4008L248.944 73.404Z" fill="white"/>
<path d="M298.604 94.8368C297.095 94.7451 295.811 93.4768 295.86 92.1172C295.914 90.5809 297.403 89.2513 298.938 89.3636C300.209 89.4579 301.533 90.9882 301.442 92.2564C301.353 93.4425 299.749 94.9065 298.608 94.8371L298.604 94.8368Z" fill="white"/>
<path d="M291.752 93.4745C291.668 94.3194 290.875 95.0773 289.399 95.0038C288.064 94.94 286.001 93.2193 286.314 92.3619C286.759 91.1435 287.326 89.8323 289.051 89.9326C290.584 90.0227 291.88 91.431 291.755 93.4716L291.752 93.4745Z" fill="white"/>
</g>
<g style="mix-blend-mode:overlay">
<path d="M27.136 21.691C26.8497 21.2441 26.479 21.0001 25.7486 20.8921C25.0152 20.7845 24.4829 20.8184 23.4718 21.1525C22.4635 21.4834 21.8557 21.8583 20.6949 22.5507C19.5344 23.2461 18.9322 23.6991 17.6718 24.6233C16.4118 25.5504 15.6587 26.1288 14.3873 27.1752C13.1162 28.2246 12.4187 28.809 11.3164 29.8703C10.2141 30.9315 9.64776 31.435 8.87607 32.4844C8.10137 33.5342 7.64668 34.0558 7.45191 35.1179C7.2538 36.1774 7.41436 36.8679 7.89618 37.7958C8.38101 38.7233 8.85685 39.1495 9.86637 39.7504C10.8759 40.3514 11.5472 40.4477 12.9408 40.801C14.3371 41.151 15.1956 41.2329 16.8395 41.5075C18.4836 41.7851 19.4484 41.8917 21.1634 42.1767C22.8781 42.4588 23.8261 42.5793 25.4109 42.9269C26.9957 43.2745 27.8523 43.4504 29.0852 43.9211C30.321 44.3915 30.8543 44.7298 31.5845 45.2826C32.3117 45.8357 32.4639 46.1428 32.7302 46.6857C32.9964 47.2285 33.0108 47.3601 32.9185 47.9935C32.8262 48.6269 32.7657 48.9935 32.2686 49.8526C31.7712 50.7087 31.3739 51.2816 30.4325 52.2829C29.4914 53.2872 28.8474 53.8598 27.5591 54.8626C26.2707 55.8655 25.5074 56.4056 23.9908 57.2972C22.4744 58.1918 21.5908 58.6059 19.98 59.3323C18.3718 60.0553 17.4855 60.388 15.945 60.9221C14.4076 61.4559 13.6374 61.7093 12.2841 62.0052C10.9339 62.3007 10.2406 62.3097 9.19074 62.4C8.13755 62.4876 7.65211 62.3923 7.03154 62.4539C6.41064 62.5126 6.27899 62.6177 6.08454 62.7055C5.88675 62.7906 5.99671 62.7937 6.05294 62.8905C6.10917 62.9872 6.3172 63.1915 6.36535 63.1862C6.41651 63.1806 6.57778 63.1237 6.29938 62.8605C6.02099 62.5974 5.37722 61.9717 4.97906 61.8668C4.58122 61.765 4.40006 62.0026 4.30555 62.3366C4.21438 62.6734 4.29851 63.0818 4.5105 63.5458C4.72518 64.0065 4.86174 64.3094 5.37391 64.6499C5.88942 64.9931 6.24011 65.2211 7.08105 65.2535C7.92231 65.2888 8.43198 65.0759 9.5759 64.815C10.7228 64.5538 11.4085 64.3912 12.8103 63.9539C14.2088 63.514 14.9937 63.2287 16.5748 62.6205C18.1529 62.0127 19.0416 61.6737 20.704 60.9175C22.3667 60.1643 23.2831 59.7436 24.8877 58.8485C26.4953 57.953 27.3067 57.4349 28.7334 56.4442C30.1628 55.4501 30.8802 54.9362 32.0266 53.8883C33.176 52.84 33.746 52.3149 34.4741 51.2007C35.1988 50.0838 35.5388 49.4597 35.657 48.3091C35.7754 47.1615 35.6119 46.444 35.0657 45.4566C34.5226 44.4689 33.9915 44.0669 32.9321 43.3715C31.873 42.6791 31.1964 42.4503 29.773 41.9913C28.3496 41.5323 27.4658 41.4138 25.8148 41.0734C24.1607 40.7333 23.2164 40.6185 21.5058 40.2906C19.7983 39.9624 18.8343 39.8073 17.265 39.4338C15.6989 39.063 14.8605 38.8579 13.6659 38.4314C12.4684 38.0052 11.9946 37.6817 11.28 37.2997C10.5657 36.9207 10.3396 36.8576 10.0908 36.5307C9.84165 36.2008 9.89045 36.2015 10.0357 35.6622C10.1839 35.1226 10.2706 34.6895 10.8289 33.8328C11.3904 32.9788 11.8587 32.3861 12.8358 31.3778C13.8163 30.3722 14.4972 29.7745 15.7216 28.7998C16.946 27.8251 17.7161 27.263 18.9519 26.5049C20.1875 25.7439 20.8061 25.4131 21.9036 25.006C23.0015 24.6019 23.5949 24.6824 24.4402 24.4752C25.2888 24.2707 25.5974 24.2522 26.1433 23.9809C26.6892 23.7095 26.9707 23.582 27.1702 23.1215C27.367 22.6643 27.4189 22.1352 27.136 21.691Z" fill="white"/>
<path d="M46.6681 51.8559C47.137 52.1346 47.5504 52.156 48.2976 51.9989C49.0448 51.8418 49.4756 51.5195 50.4068 51.0669C51.3413 50.617 51.8997 50.2929 52.9635 49.7442C54.03 49.1922 54.6456 48.889 55.7365 48.3101C56.8275 47.7312 57.42 47.4124 58.424 46.846C59.4281 46.2796 60.0195 46.1183 60.7597 45.4778C61.5031 44.84 61.7991 44.4265 62.1285 43.6492C62.4575 42.869 62.5531 42.3774 62.4089 41.5852C62.262 40.7964 62.046 40.2965 61.4019 39.695C60.7611 39.0961 60.2624 38.6845 59.1977 38.5828C58.133 38.481 57.4657 38.7838 56.0847 39.1885C54.7037 39.5933 53.9004 39.8776 52.2929 40.6066C50.6824 41.336 49.7518 41.8217 48.0389 42.8406C46.326 43.8596 45.3468 44.514 43.7283 45.7011C42.1069 46.8886 41.2496 47.5721 39.9434 48.7736C38.6371 49.9751 38.0505 50.5716 37.1943 51.712C36.3381 52.8523 35.9279 53.363 35.6595 54.4755C35.394 55.5877 35.4306 56.2857 35.8574 57.268C36.2846 58.2532 36.7654 58.809 37.7893 59.4023C38.8129 59.9927 39.5566 60.0266 40.973 60.2261C42.3925 60.4254 43.1759 60.461 44.8768 60.3935C46.5751 60.3293 47.7185 60.1472 49.4731 59.9013C51.2246 59.6559 52.2379 59.5091 53.6401 59.1595C55.0423 58.8099 55.9801 58.6138 56.4838 58.1504C56.9878 57.69 56.8061 57.029 56.1621 56.848C55.5181 56.6671 54.649 57.0463 53.2585 57.2524C51.8678 57.4555 50.8924 57.6708 49.2089 57.8696C47.5253 58.0683 46.4036 58.2541 44.8429 58.2398C43.2853 58.225 42.5577 58.0593 41.4152 57.8026C40.2697 57.5463 39.7891 57.2719 39.1301 56.9534C38.4681 56.6353 38.3368 56.6042 38.1149 56.2169C37.893 55.8296 37.8747 55.6894 38.0239 55.0195C38.1729 54.3467 38.2347 53.8528 38.8632 52.8583C39.4917 51.8639 39.9955 51.2068 41.1693 50.0469C42.3428 48.8841 43.1773 48.188 44.7281 47.0506C46.2792 45.9162 47.254 45.2773 48.9215 44.3723C50.5893 43.4703 51.5264 43.0443 53.0598 42.5291C54.5932 42.0139 55.4225 41.8842 56.5913 41.796C57.7575 41.7112 58.2269 42.0504 58.8957 42.0954C59.5641 42.1375 59.673 42.047 59.9338 42.0095C60.1919 41.9753 60.2176 41.8756 60.1944 41.9145C60.1746 41.956 60.127 41.9944 59.8249 42.212C59.5255 42.4262 59.2768 42.5471 58.6953 42.9948C58.1138 43.4425 57.7613 43.8682 56.9174 44.4505C56.0734 45.0327 55.5119 45.3844 54.4759 45.9089C53.4429 46.4331 52.8269 46.6485 51.7434 47.0723C50.6565 47.4934 50.0347 47.6277 49.0513 48.0194C48.0681 48.4141 47.4467 48.5242 46.8242 49.043C46.2044 49.5584 45.9828 50.0395 45.9499 50.6028C45.9199 51.1659 46.1992 51.5772 46.6681 51.8559Z" fill="white"/>
<path d="M85.4213 39.0212C85.5928 38.5275 85.4952 38.1629 85.1884 37.6396C84.8814 37.1133 84.5908 36.794 83.8829 36.3901C83.175 35.9862 82.6475 35.729 81.6484 35.6141C80.6492 35.4991 80.0534 35.5641 78.8908 35.821C77.7281 36.0779 77.1021 36.3126 75.8323 36.8989C74.5658 37.4878 73.8611 37.8673 72.5453 38.7581C71.2269 39.6523 70.4728 40.249 69.246 41.3692C68.0188 42.4864 67.416 43.1573 66.4105 44.3532C65.4078 45.5458 64.9061 46.1664 64.2266 47.3358C63.5472 48.5053 63.202 49.0815 63.0074 50.2011C62.8131 51.3237 62.8655 51.9716 63.2543 52.9398C63.6434 53.9111 64.05 54.484 64.9523 55.0513C65.8549 55.6216 66.5637 55.7259 67.7662 55.7793C68.9718 55.8324 69.6301 55.6698 70.9687 55.3241C72.3105 54.9781 73.061 54.6845 74.4657 54.0502C75.8707 53.4189 76.652 53.016 77.9927 52.1587C79.3305 51.3017 79.966 50.7906 81.1604 49.7647C82.3516 48.7362 82.9419 48.118 83.9614 47.0235C84.9806 45.9259 85.4827 45.3083 86.254 44.2832C87.0283 43.2577 87.6421 42.7157 87.8205 41.8944C87.9993 41.0761 87.6461 40.5457 87.15 40.1853C86.6573 39.8275 86.0183 39.7762 85.3442 40.1008C84.6697 40.4225 84.2813 40.9096 83.7758 41.8029C83.2733 42.6959 83.1726 43.4482 82.8259 44.5693C82.4789 45.6873 82.2596 46.3285 82.0377 47.3936C81.8162 48.4617 81.695 49.0256 81.714 49.898C81.7333 50.7734 81.8853 51.1895 82.1361 51.7583C82.3869 52.327 82.6381 52.5084 82.9681 52.7417C83.2984 52.978 83.5145 53.0059 83.7865 52.9308C84.0588 52.8588 84.182 52.564 84.3319 52.3751C84.4815 52.1833 84.4303 52.1889 84.5379 51.9744C84.6451 51.757 84.781 51.6907 84.869 51.2968C84.954 50.9033 84.9062 50.6331 84.9745 50.0024C85.0457 49.3713 84.982 48.9818 85.2166 48.1453C85.4538 47.3055 85.7144 46.7627 86.1529 45.8132C86.591 44.8607 87.1221 44.2853 87.411 43.3884C87.6999 42.4915 87.7449 41.9541 87.5941 41.326C87.4464 40.6976 87.1354 40.3866 86.6665 40.2471C86.2002 40.1043 85.7567 40.0861 85.2542 40.6159C84.752 41.1488 84.7329 41.8952 84.1512 42.8997C83.5692 43.9012 83.2127 44.5694 82.3484 45.635C81.481 46.7009 80.9142 47.2831 79.8212 48.2344C78.7279 49.1828 78.1263 49.6417 76.8791 50.3799C75.6353 51.1207 74.8772 51.4575 73.5863 51.9342C72.2984 52.4105 71.5595 52.5879 70.4302 52.7595C69.2979 52.9314 68.7463 52.8432 67.9278 52.7933C67.1093 52.7434 66.7906 52.6692 66.3408 52.5095C65.891 52.3497 65.8231 52.3692 65.682 51.9973C65.5437 51.6221 65.5297 51.3543 65.6433 50.6369C65.7569 49.9195 65.7767 49.4029 66.2561 48.4096C66.7358 47.4193 67.1681 46.776 68.0439 45.6759C68.9226 44.5755 69.5054 43.9159 70.6474 42.9108C71.789 41.9028 72.5318 41.3709 73.7589 40.6441C74.9833 39.9205 75.6761 39.6271 76.7774 39.2831C77.8821 38.9417 78.4397 38.9172 79.2727 38.9323C80.1023 38.9447 80.3527 39.1746 80.9359 39.3561C81.522 39.5372 81.7422 39.6857 82.1944 39.8391C82.6469 39.9955 82.7717 40.0788 83.1978 40.1322C83.6265 40.1822 83.8858 40.3264 84.3303 40.1024C84.7752 39.8815 85.2468 39.5153 85.4213 39.0212Z" fill="white"/>
<path d="M98.5425 39.3817C98.0418 39.4544 97.8591 39.6771 97.4323 40.12C97.0029 40.5663 96.7351 40.8466 96.4061 41.5996C96.0804 42.3553 96.0627 42.9745 95.7914 43.8937C95.5228 44.8095 95.2761 45.3387 95.0545 46.1829C94.8326 47.0241 94.6071 47.442 94.6825 48.1055C94.7549 48.7694 94.9601 49.1706 95.4218 49.4955C95.8869 49.823 96.4104 49.9323 96.9982 49.7381C97.5857 49.5409 98.0023 49.2837 98.3637 48.5211C98.7251 47.7585 98.479 47.0652 98.8077 45.9188C99.1364 44.7725 99.3899 43.9975 100.01 42.7891C100.63 41.5777 101.089 40.9225 101.909 39.8709C102.732 38.8189 103.205 38.3285 104.12 37.5268C105.034 36.7251 105.547 36.3756 106.481 35.8623C107.411 35.3463 107.892 35.2001 108.781 34.9488C109.667 34.6979 110.115 34.649 110.918 34.6098C111.718 34.5711 112.067 34.6692 112.783 34.7575C113.499 34.8488 113.896 35.0294 114.5 35.0635C115.104 35.0975 115.347 35.0134 115.794 34.9253C116.242 34.8402 116.457 34.8834 116.736 34.626C117.016 34.3685 117.227 34.0429 117.192 33.6412C117.157 33.2396 116.956 32.9832 116.563 32.6175C116.167 32.2552 115.922 32.0762 115.218 31.8231C114.515 31.573 113.987 31.3975 113.046 31.3641C112.104 31.3306 111.544 31.4431 110.514 31.6553C109.483 31.8676 108.952 31.9951 107.893 32.4222C106.834 32.8493 106.278 33.1067 105.22 33.791C104.159 34.4755 103.61 34.9166 102.594 35.8504C101.578 36.7842 101.083 37.3254 100.138 38.4573C99.1927 39.5922 98.7101 40.2772 97.862 41.5195C97.014 42.7618 96.5676 43.5276 95.901 44.6745C95.2313 45.8217 94.7153 46.3681 94.5257 47.2542C94.3334 48.1436 94.5772 48.5921 94.9442 49.1088C95.3111 49.6256 95.7833 49.8222 96.3605 49.8379C96.9407 49.8533 97.3601 49.6775 97.8364 49.1868C98.3101 48.6994 98.4087 48.2075 98.7402 47.3938C99.0713 46.577 99.1551 46.005 99.4902 45.1122C99.8282 44.219 100.218 43.7438 100.418 42.9292C100.619 42.1145 100.586 41.6763 100.49 41.0423C100.393 40.4054 100.322 40.0863 99.932 39.7536C99.5425 39.4209 99.0427 39.3059 98.5425 39.3817Z" fill="white"/>
<path d="M136.147 32.2126C136.075 31.6909 135.784 31.3627 135.205 31.0264C134.626 30.6901 134.158 30.4991 133.254 30.5311C132.347 30.5604 131.74 30.7204 130.679 31.1841C129.615 31.6451 129.075 32.0277 127.94 32.8444C126.807 33.6578 126.181 34.2011 125.015 35.2603C123.851 36.3161 123.155 36.9427 122.112 38.1306C121.072 39.3182 120.522 39.9712 119.809 41.1958C119.093 42.4177 118.758 43.0564 118.541 44.2481C118.32 45.4371 118.279 46.1224 118.714 47.1491C119.145 48.1762 119.675 48.7902 120.705 49.3829C121.738 49.9723 122.49 50.0234 123.868 50.0971C125.246 50.1707 125.99 50.0381 127.603 49.7473C129.212 49.4538 130.282 49.1343 131.924 48.6345C133.569 48.1374 134.549 47.8005 135.82 47.2505C137.088 46.7037 137.881 46.4054 138.275 45.8904C138.67 45.3753 138.423 44.788 137.793 44.6782C137.162 44.5654 136.417 44.9584 135.121 45.3357C133.825 45.713 132.893 46.1293 131.318 46.5674C129.743 47.0084 128.692 47.3349 127.243 47.5383C125.794 47.7416 125.111 47.7042 124.075 47.5842C123.039 47.4642 122.648 47.2345 122.062 46.9383C121.475 46.6422 121.35 46.556 121.146 46.1063C120.938 45.6568 120.901 45.4522 121.037 44.6929C121.171 43.934 121.273 43.3328 121.822 42.3107C122.368 41.2889 122.837 40.6417 123.778 39.58C124.721 38.5178 125.415 37.8975 126.526 36.9987C127.64 36.0996 128.306 35.6185 129.347 35.0874C130.388 34.5532 130.909 34.4995 131.738 34.3335C132.563 34.1678 132.924 34.3161 133.486 34.2548C134.049 34.1934 134.136 34.1506 134.549 34.027C134.964 33.9029 135.24 33.997 135.559 33.6353C135.879 33.2706 136.216 32.7346 136.147 32.2126Z" fill="white"/>
<path d="M154.964 15.3279C154.485 15.489 154.212 15.667 153.887 16.3712C153.559 17.0727 153.627 17.616 153.331 18.8404C153.035 20.0649 152.879 20.9201 152.408 22.4935C151.94 24.0695 151.619 25.0032 150.98 26.7099C150.341 28.4196 149.928 29.3482 149.219 31.0322C148.508 32.7195 148.117 33.6033 147.429 35.1398C146.744 36.676 146.407 37.445 145.785 38.7172C145.159 39.9897 144.646 40.5328 144.311 41.5044C143.975 42.473 143.878 42.9313 144.106 43.5631C144.33 44.1953 144.754 44.5091 145.437 44.6615C146.121 44.8169 146.8 44.873 147.527 44.3308C148.256 43.7853 148.28 43.002 149.069 41.9416C149.86 40.878 150.344 40.1717 151.476 39.0195C152.605 37.8705 153.383 37.2411 154.721 36.1904C156.056 35.1401 156.8 34.5687 158.153 33.7646C159.506 32.9605 160.282 32.5944 161.481 32.1702C162.68 31.7459 163.33 31.6963 164.152 31.6429C164.972 31.5928 165.19 31.6659 165.588 31.9099C165.986 32.1539 165.987 32.2991 166.143 32.8631C166.298 33.427 166.376 33.8059 166.37 34.7264C166.361 35.6473 166.302 36.3073 166.108 37.4631C165.915 38.6189 165.723 39.3478 165.399 40.5058C165.078 41.6664 164.8 42.2747 164.496 43.2609C164.193 44.2472 164.002 44.7279 163.881 45.44C163.761 46.1521 163.81 46.3738 163.895 46.8214C163.977 47.2693 164.014 47.4105 164.293 47.6796C164.575 47.9484 164.982 48.1098 165.293 48.1667C165.604 48.2266 165.988 48.1968 165.851 47.9728C165.716 47.7453 164.825 47.1648 164.615 47.0333C164.403 46.9051 164.603 47.198 164.802 47.3215C165.001 47.4451 165.335 47.6538 165.608 47.6512C165.882 47.6486 165.929 47.6011 166.174 47.3081C166.416 47.0154 166.592 46.8449 166.825 46.1871C167.058 45.5323 167.1 45.0224 167.338 44.0192C167.573 43.0162 167.714 42.3865 168.011 41.1741C168.305 39.9589 168.558 39.2324 168.81 37.9461C169.06 36.6631 169.26 35.9877 169.272 34.7489C169.286 33.5098 169.363 32.7691 168.872 31.7545C168.381 30.74 167.796 30.1774 166.815 29.6731C165.831 29.1692 165.181 29.1251 163.96 29.2371C162.739 29.3491 162.074 29.6455 160.712 30.2267C159.35 30.8079 158.588 31.2511 157.153 32.1368C155.722 33.0252 154.978 33.6085 153.543 34.6577C152.108 35.7099 151.3 36.3214 149.98 37.3913C148.659 38.4582 147.964 39.0968 146.94 40.0073C145.915 40.9179 145.268 41.2336 144.858 41.947C144.448 42.6573 144.691 43.1756 144.895 43.5648C145.096 43.9574 145.482 44.1181 145.872 43.897C146.261 43.673 146.477 43.3288 146.84 42.4479C147.207 41.5667 147.244 40.8183 147.697 39.4951C148.146 38.1722 148.466 37.3899 149.091 35.8331C149.716 34.2732 150.101 33.393 150.824 31.7044C151.547 30.0158 151.973 29.0888 152.705 27.3962C153.437 25.7006 153.835 24.7766 154.486 23.2291C155.136 21.6786 155.484 20.8751 155.96 19.6552C156.432 18.4327 156.792 17.9335 156.855 17.1187C156.919 16.3039 156.65 15.9338 156.273 15.5755C155.893 15.2175 155.44 15.1701 154.964 15.3279Z" fill="white"/>
<path d="M27.136 21.691C26.8497 21.2441 26.479 21.0001 25.7486 20.8921C25.0152 20.7845 24.4829 20.8184 23.4718 21.1525C22.4635 21.4834 21.8557 21.8583 20.6949 22.5507C19.5344 23.2461 18.9322 23.6991 17.6718 24.6233C16.4118 25.5504 15.6587 26.1288 14.3873 27.1752C13.1162 28.2246 12.4187 28.809 11.3164 29.8703C10.2141 30.9315 9.64776 31.435 8.87607 32.4844C8.10137 33.5342 7.64668 34.0558 7.45191 35.1179C7.2538 36.1774 7.41436 36.8679 7.89618 37.7958C8.38101 38.7233 8.85685 39.1495 9.86637 39.7504C10.8759 40.3514 11.5472 40.4477 12.9408 40.801C14.3371 41.151 15.1956 41.2329 16.8395 41.5075C18.4836 41.7851 19.4484 41.8917 21.1634 42.1767C22.8781 42.4588 23.8261 42.5793 25.4109 42.9269C26.9957 43.2745 27.8523 43.4504 29.0852 43.9211C30.321 44.3915 30.8543 44.7298 31.5845 45.2826C32.3117 45.8357 32.4639 46.1428 32.7302 46.6857C32.9964 47.2285 33.0108 47.3601 32.9185 47.9935C32.8262 48.6269 32.7657 48.9935 32.2686 49.8526C31.7712 50.7087 31.3739 51.2816 30.4325 52.2829C29.4914 53.2872 28.8474 53.8598 27.5591 54.8626C26.2707 55.8655 25.5074 56.4056 23.9908 57.2972C22.4744 58.1918 21.5908 58.6059 19.98 59.3323C18.3718 60.0553 17.4855 60.388 15.945 60.9221C14.4076 61.4559 13.6374 61.7093 12.2841 62.0052C10.9339 62.3007 10.2406 62.3097 9.19074 62.4C8.13755 62.4876 7.65211 62.3923 7.03154 62.4539C6.41064 62.5126 6.27899 62.6177 6.08454 62.7055C5.88675 62.7906 5.99671 62.7937 6.05294 62.8905C6.10917 62.9872 6.3172 63.1915 6.36535 63.1862C6.41651 63.1806 6.57778 63.1237 6.29938 62.8605C6.02099 62.5974 5.37722 61.9717 4.97906 61.8668C4.58122 61.765 4.40006 62.0026 4.30555 62.3366C4.21438 62.6734 4.29851 63.0818 4.5105 63.5458C4.72518 64.0065 4.86174 64.3094 5.37391 64.6499C5.88942 64.9931 6.24011 65.2211 7.08105 65.2535C7.92231 65.2888 8.43198 65.0759 9.5759 64.815C10.7228 64.5538 11.4085 64.3912 12.8103 63.9539C14.2088 63.514 14.9937 63.2287 16.5748 62.6205C18.1529 62.0127 19.0416 61.6737 20.704 60.9175C22.3667 60.1643 23.2831 59.7436 24.8877 58.8485C26.4953 57.953 27.3067 57.4349 28.7334 56.4442C30.1628 55.4501 30.8802 54.9362 32.0266 53.8883C33.176 52.84 33.746 52.3149 34.4741 51.2007C35.1988 50.0838 35.5388 49.4597 35.657 48.3091C35.7754 47.1615 35.6119 46.444 35.0657 45.4566C34.5226 44.4689 33.9915 44.0669 32.9321 43.3715C31.873 42.6791 31.1964 42.4503 29.773 41.9913C28.3496 41.5323 27.4658 41.4138 25.8148 41.0734C24.1607 40.7333 23.2164 40.6185 21.5058 40.2906C19.7983 39.9624 18.8343 39.8073 17.265 39.4338C15.6989 39.063 14.8605 38.8579 13.6659 38.4314C12.4684 38.0052 11.9946 37.6817 11.28 37.2997C10.5657 36.9207 10.3396 36.8576 10.0908 36.5307C9.84165 36.2008 9.89045 36.2015 10.0357 35.6622C10.1839 35.1226 10.2706 34.6895 10.8289 33.8328C11.3904 32.9788 11.8587 32.3861 12.8358 31.3778C13.8163 30.3722 14.4972 29.7745 15.7216 28.7998C16.946 27.8251 17.7161 27.263 18.9519 26.5049C20.1875 25.7439 20.8061 25.4131 21.9036 25.006C23.0015 24.6019 23.5949 24.6824 24.4402 24.4752C25.2888 24.2707 25.5974 24.2522 26.1433 23.9809C26.6892 23.7095 26.9707 23.582 27.1702 23.1215C27.367 22.6643 27.4189 22.1352 27.136 21.691Z" stroke="white" stroke-width="2"/>
<path d="M46.6681 51.8559C47.137 52.1346 47.5504 52.156 48.2976 51.9989C49.0448 51.8418 49.4756 51.5195 50.4068 51.0669C51.3413 50.617 51.8997 50.2929 52.9635 49.7442C54.03 49.1922 54.6456 48.889 55.7365 48.3101C56.8275 47.7312 57.42 47.4124 58.424 46.846C59.4281 46.2796 60.0195 46.1183 60.7597 45.4778C61.5031 44.84 61.7991 44.4265 62.1285 43.6492C62.4575 42.869 62.5531 42.3774 62.4089 41.5852C62.262 40.7964 62.046 40.2965 61.4019 39.695C60.7611 39.0961 60.2624 38.6845 59.1977 38.5828C58.133 38.481 57.4657 38.7838 56.0847 39.1885C54.7037 39.5933 53.9004 39.8776 52.2929 40.6066C50.6824 41.336 49.7518 41.8217 48.0389 42.8406C46.326 43.8596 45.3468 44.514 43.7283 45.7011C42.1069 46.8886 41.2496 47.5721 39.9434 48.7736C38.6371 49.9751 38.0505 50.5716 37.1943 51.712C36.3381 52.8523 35.9279 53.363 35.6595 54.4755C35.394 55.5877 35.4306 56.2857 35.8574 57.268C36.2846 58.2532 36.7654 58.809 37.7893 59.4023C38.8129 59.9927 39.5566 60.0266 40.973 60.2261C42.3925 60.4254 43.1759 60.461 44.8768 60.3935C46.5751 60.3293 47.7185 60.1472 49.4731 59.9013C51.2246 59.6559 52.2379 59.5091 53.6401 59.1595C55.0423 58.8099 55.9801 58.6138 56.4838 58.1504C56.9878 57.69 56.8061 57.029 56.1621 56.848C55.5181 56.6671 54.649 57.0463 53.2585 57.2524C51.8678 57.4555 50.8924 57.6708 49.2089 57.8696C47.5253 58.0683 46.4036 58.2541 44.8429 58.2398C43.2853 58.225 42.5577 58.0593 41.4152 57.8026C40.2697 57.5463 39.7891 57.2719 39.1301 56.9534C38.4681 56.6353 38.3368 56.6042 38.1149 56.2169C37.893 55.8296 37.8747 55.6894 38.0239 55.0195C38.1729 54.3467 38.2347 53.8528 38.8632 52.8583C39.4917 51.8639 39.9955 51.2068 41.1693 50.0469C42.3428 48.8841 43.1773 48.188 44.7281 47.0506C46.2792 45.9162 47.254 45.2773 48.9215 44.3723C50.5893 43.4703 51.5264 43.0443 53.0598 42.5291C54.5932 42.0139 55.4225 41.8842 56.5913 41.796C57.7575 41.7112 58.2269 42.0504 58.8957 42.0954C59.5641 42.1375 59.673 42.047 59.9338 42.0095C60.1919 41.9753 60.2176 41.8756 60.1944 41.9145C60.1746 41.956 60.127 41.9944 59.8249 42.212C59.5255 42.4262 59.2768 42.5471 58.6953 42.9948C58.1138 43.4425 57.7613 43.8682 56.9174 44.4505C56.0734 45.0327 55.5119 45.3844 54.4759 45.9089C53.4429 46.4331 52.8269 46.6485 51.7434 47.0723C50.6565 47.4934 50.0347 47.6277 49.0513 48.0194C48.0681 48.4141 47.4467 48.5242 46.8242 49.043C46.2044 49.5584 45.9828 50.0395 45.9499 50.6028C45.9199 51.1659 46.1992 51.5772 46.6681 51.8559Z" stroke="white" stroke-width="2"/>
<path d="M85.4213 39.0212C85.5928 38.5275 85.4952 38.1629 85.1884 37.6396C84.8814 37.1133 84.5908 36.794 83.8829 36.3901C83.175 35.9862 82.6475 35.729 81.6484 35.6141C80.6492 35.4991 80.0534 35.5641 78.8908 35.821C77.7281 36.0779 77.1021 36.3126 75.8323 36.8989C74.5658 37.4878 73.8611 37.8673 72.5453 38.7581C71.2269 39.6523 70.4728 40.249 69.246 41.3692C68.0188 42.4864 67.416 43.1573 66.4105 44.3532C65.4078 45.5458 64.9061 46.1664 64.2266 47.3358C63.5472 48.5053 63.202 49.0815 63.0074 50.2011C62.8131 51.3237 62.8655 51.9716 63.2543 52.9398C63.6434 53.9111 64.05 54.484 64.9523 55.0513C65.8549 55.6216 66.5637 55.7259 67.7662 55.7793C68.9718 55.8324 69.6301 55.6698 70.9687 55.3241C72.3105 54.9781 73.061 54.6845 74.4657 54.0502C75.8707 53.4189 76.652 53.016 77.9927 52.1587C79.3305 51.3017 79.966 50.7906 81.1604 49.7647C82.3516 48.7362 82.9419 48.118 83.9614 47.0235C84.9806 45.9259 85.4827 45.3083 86.254 44.2832C87.0283 43.2577 87.6421 42.7157 87.8205 41.8944C87.9993 41.0761 87.6461 40.5457 87.15 40.1853C86.6573 39.8275 86.0183 39.7762 85.3442 40.1008C84.6697 40.4225 84.2813 40.9096 83.7758 41.8029C83.2733 42.6959 83.1726 43.4482 82.8259 44.5693C82.4789 45.6873 82.2596 46.3285 82.0377 47.3936C81.8162 48.4617 81.695 49.0256 81.714 49.898C81.7333 50.7734 81.8853 51.1895 82.1361 51.7583C82.3869 52.327 82.6381 52.5084 82.9681 52.7417C83.2984 52.978 83.5145 53.0059 83.7865 52.9308C84.0588 52.8588 84.182 52.564 84.3319 52.3751C84.4815 52.1833 84.4303 52.1889 84.5379 51.9744C84.6451 51.757 84.781 51.6907 84.869 51.2968C84.954 50.9033 84.9062 50.6331 84.9745 50.0024C85.0457 49.3713 84.982 48.9818 85.2166 48.1453C85.4538 47.3055 85.7144 46.7627 86.1529 45.8132C86.591 44.8607 87.1221 44.2853 87.411 43.3884C87.6999 42.4915 87.7449 41.9541 87.5941 41.326C87.4464 40.6976 87.1354 40.3866 86.6665 40.2471C86.2002 40.1043 85.7567 40.0861 85.2542 40.6159C84.752 41.1488 84.7329 41.8952 84.1512 42.8997C83.5692 43.9012 83.2127 44.5694 82.3484 45.635C81.481 46.7009 80.9142 47.2831 79.8212 48.2344C78.7279 49.1828 78.1263 49.6417 76.8791 50.3799C75.6353 51.1207 74.8772 51.4575 73.5863 51.9342C72.2984 52.4105 71.5595 52.5879 70.4302 52.7595C69.2979 52.9314 68.7463 52.8432 67.9278 52.7933C67.1093 52.7434 66.7906 52.6692 66.3408 52.5095C65.891 52.3497 65.8231 52.3692 65.682 51.9973C65.5437 51.6221 65.5297 51.3543 65.6433 50.6369C65.7569 49.9195 65.7767 49.4029 66.2561 48.4096C66.7358 47.4193 67.1681 46.776 68.0439 45.6759C68.9226 44.5755 69.5054 43.9159 70.6474 42.9108C71.789 41.9028 72.5318 41.3709 73.7589 40.6441C74.9833 39.9205 75.6761 39.6271 76.7774 39.2831C77.8821 38.9417 78.4397 38.9172 79.2727 38.9323C80.1023 38.9447 80.3527 39.1746 80.9359 39.3561C81.522 39.5372 81.7422 39.6857 82.1944 39.8391C82.6469 39.9955 82.7717 40.0788 83.1978 40.1322C83.6265 40.1822 83.8858 40.3264 84.3303 40.1024C84.7752 39.8815 85.2468 39.5153 85.4213 39.0212Z" stroke="white" stroke-width="2"/>
<path d="M98.5425 39.3817C98.0418 39.4544 97.8591 39.6771 97.4323 40.12C97.0029 40.5663 96.7351 40.8466 96.4061 41.5996C96.0804 42.3553 96.0627 42.9745 95.7914 43.8937C95.5228 44.8095 95.2761 45.3387 95.0545 46.1829C94.8326 47.0241 94.6071 47.442 94.6825 48.1055C94.7549 48.7694 94.9601 49.1706 95.4218 49.4955C95.8869 49.823 96.4104 49.9323 96.9982 49.7381C97.5857 49.5409 98.0023 49.2837 98.3637 48.5211C98.7251 47.7585 98.479 47.0652 98.8077 45.9188C99.1364 44.7725 99.3899 43.9975 100.01 42.7891C100.63 41.5777 101.089 40.9225 101.909 39.8709C102.732 38.8189 103.205 38.3285 104.12 37.5268C105.034 36.7251 105.547 36.3756 106.481 35.8623C107.411 35.3463 107.892 35.2001 108.781 34.9488C109.667 34.6979 110.115 34.649 110.918 34.6098C111.718 34.5711 112.067 34.6692 112.783 34.7575C113.499 34.8488 113.896 35.0294 114.5 35.0635C115.104 35.0975 115.347 35.0134 115.794 34.9253C116.242 34.8402 116.457 34.8834 116.736 34.626C117.016 34.3685 117.227 34.0429 117.192 33.6412C117.157 33.2396 116.956 32.9832 116.563 32.6175C116.167 32.2552 115.922 32.0762 115.218 31.8231C114.515 31.573 113.987 31.3975 113.046 31.3641C112.104 31.3306 111.544 31.4431 110.514 31.6553C109.483 31.8676 108.952 31.9951 107.893 32.4222C106.834 32.8493 106.278 33.1067 105.22 33.791C104.159 34.4755 103.61 34.9166 102.594 35.8504C101.578 36.7842 101.083 37.3254 100.138 38.4573C99.1927 39.5922 98.7101 40.2772 97.862 41.5195C97.014 42.7618 96.5676 43.5276 95.901 44.6745C95.2313 45.8217 94.7153 46.3681 94.5257 47.2542C94.3334 48.1436 94.5772 48.5921 94.9442 49.1088C95.3111 49.6256 95.7833 49.8222 96.3605 49.8379C96.9407 49.8533 97.3601 49.6775 97.8364 49.1868C98.3101 48.6994 98.4087 48.2075 98.7402 47.3938C99.0713 46.577 99.1551 46.005 99.4902 45.1122C99.8282 44.219 100.218 43.7438 100.418 42.9292C100.619 42.1145 100.586 41.6763 100.49 41.0423C100.393 40.4054 100.322 40.0863 99.932 39.7536C99.5425 39.4209 99.0427 39.3059 98.5425 39.3817Z" stroke="white" stroke-width="2"/>
<path d="M136.147 32.2126C136.075 31.6909 135.784 31.3627 135.205 31.0264C134.626 30.6901 134.158 30.4991 133.254 30.5311C132.347 30.5604 131.74 30.7204 130.679 31.1841C129.615 31.6451 129.075 32.0277 127.94 32.8444C126.807 33.6578 126.181 34.2011 125.015 35.2603C123.851 36.3161 123.155 36.9427 122.112 38.1306C121.072 39.3182 120.522 39.9712 119.809 41.1958C119.093 42.4177 118.758 43.0564 118.541 44.2481C118.32 45.4371 118.279 46.1224 118.714 47.1491C119.145 48.1762 119.675 48.7902 120.705 49.3829C121.738 49.9723 122.49 50.0234 123.868 50.0971C125.246 50.1707 125.99 50.0381 127.603 49.7473C129.212 49.4538 130.282 49.1343 131.924 48.6345C133.569 48.1374 134.549 47.8005 135.82 47.2505C137.088 46.7037 137.881 46.4054 138.275 45.8904C138.67 45.3753 138.423 44.788 137.793 44.6782C137.162 44.5654 136.417 44.9584 135.121 45.3357C133.825 45.713 132.893 46.1293 131.318 46.5674C129.743 47.0084 128.692 47.3349 127.243 47.5383C125.794 47.7416 125.111 47.7042 124.075 47.5842C123.039 47.4642 122.648 47.2345 122.062 46.9383C121.475 46.6422 121.35 46.556 121.146 46.1063C120.938 45.6568 120.901 45.4522 121.037 44.6929C121.171 43.934 121.273 43.3328 121.822 42.3107C122.368 41.2889 122.837 40.6417 123.778 39.58C124.721 38.5178 125.415 37.8975 126.526 36.9987C127.64 36.0996 128.306 35.6185 129.347 35.0874C130.388 34.5532 130.909 34.4995 131.738 34.3335C132.563 34.1678 132.924 34.3161 133.486 34.2548C134.049 34.1934 134.136 34.1506 134.549 34.027C134.964 33.9029 135.24 33.997 135.559 33.6353C135.879 33.2706 136.216 32.7346 136.147 32.2126Z" stroke="white" stroke-width="2"/>
<path d="M154.964 15.3279C154.485 15.489 154.212 15.667 153.887 16.3712C153.559 17.0727 153.627 17.616 153.331 18.8404C153.035 20.0649 152.879 20.9201 152.408 22.4935C151.94 24.0695 151.619 25.0032 150.98 26.7099C150.341 28.4196 149.928 29.3482 149.219 31.0322C148.508 32.7195 148.117 33.6033 147.429 35.1398C146.744 36.676 146.407 37.445 145.785 38.7172C145.159 39.9897 144.646 40.5328 144.311 41.5044C143.975 42.473 143.878 42.9313 144.106 43.5631C144.33 44.1953 144.754 44.5091 145.437 44.6615C146.121 44.8169 146.8 44.873 147.527 44.3308C148.256 43.7853 148.28 43.002 149.069 41.9416C149.86 40.878 150.344 40.1717 151.476 39.0195C152.605 37.8705 153.383 37.2411 154.721 36.1904C156.056 35.1401 156.8 34.5687 158.153 33.7646C159.506 32.9605 160.282 32.5944 161.481 32.1702C162.68 31.7459 163.33 31.6963 164.152 31.6429C164.972 31.5928 165.19 31.6659 165.588 31.9099C165.986 32.1539 165.987 32.2991 166.143 32.8631C166.298 33.427 166.376 33.8059 166.37 34.7264C166.361 35.6473 166.302 36.3073 166.108 37.4631C165.915 38.6189 165.723 39.3478 165.399 40.5058C165.078 41.6664 164.8 42.2747 164.496 43.2609C164.193 44.2472 164.002 44.7279 163.881 45.44C163.761 46.1521 163.81 46.3738 163.895 46.8214C163.977 47.2693 164.014 47.4105 164.293 47.6796C164.575 47.9484 164.982 48.1098 165.293 48.1667C165.604 48.2266 165.988 48.1968 165.851 47.9728C165.716 47.7453 164.825 47.1648 164.615 47.0333C164.403 46.9051 164.603 47.198 164.802 47.3215C165.001 47.4451 165.335 47.6538 165.608 47.6512C165.882 47.6486 165.929 47.6011 166.174 47.3081C166.416 47.0154 166.592 46.8449 166.825 46.1871C167.058 45.5323 167.1 45.0224 167.338 44.0192C167.573 43.0162 167.714 42.3865 168.011 41.1741C168.305 39.9589 168.558 39.2324 168.81 37.9461C169.06 36.6631 169.26 35.9877 169.272 34.7489C169.286 33.5098 169.363 32.7691 168.872 31.7545C168.381 30.74 167.796 30.1774 166.815 29.6731C165.831 29.1692 165.181 29.1251 163.96 29.2371C162.739 29.3491 162.074 29.6455 160.712 30.2267C159.35 30.8079 158.588 31.2511 157.153 32.1368C155.722 33.0252 154.978 33.6085 153.543 34.6577C152.108 35.7099 151.3 36.3214 149.98 37.3913C148.659 38.4582 147.964 39.0968 146.94 40.0073C145.915 40.9179 145.268 41.2336 144.858 41.947C144.448 42.6573 144.691 43.1756 144.895 43.5648C145.096 43.9574 145.482 44.1181 145.872 43.897C146.261 43.673 146.477 43.3288 146.84 42.4479C147.207 41.5667 147.244 40.8183 147.697 39.4951C148.146 38.1722 148.466 37.3899 149.091 35.8331C149.716 34.2732 150.101 33.393 150.824 31.7044C151.547 30.0158 151.973 29.0888 152.705 27.3962C153.437 25.7006 153.835 24.7766 154.486 23.2291C155.136 21.6786 155.484 20.8751 155.96 19.6552C156.432 18.4327 156.792 17.9335 156.855 17.1187C156.919 16.3039 156.65 15.9338 156.273 15.5755C155.893 15.2175 155.44 15.1701 154.964 15.3279Z" stroke="white" stroke-width="2"/>
</g>
<g style="mix-blend-mode:overlay">
<path d="M182.354 42.904C182.297 42.3798 181.975 41.2146 181.631 40.8106C180.93 39.9886 183.579 41.2425 183.865 42.2581C184.835 45.7126 178.396 47.5212 176.188 45.9962C174.153 44.5906 175.925 42.048 177.297 40.9119C178.67 39.7752 180.358 39.4575 182.034 39.9692" stroke="white" stroke-width="3" stroke-linecap="round"/>
<path d="M183.219 5.44053C183.22 4.92941 183.618 4.56441 183.697 5.29208C183.843 6.63079 183.525 8.00949 183.368 9.32893C182.88 13.4159 182.539 17.5179 182.025 21.6018C181.692 24.2516 181.586 26.8952 181.337 29.5411C181.255 30.4177 181.666 28.0917 181.706 27.8785" stroke="white" stroke-width="3" stroke-linecap="round"/>
<path d="M181.422 7.12074C181.995 7.05827 181.054 26.4443 181.403 29.6433" stroke="white" stroke-width="3" stroke-linecap="round"/>
<path d="M193.765 39.1848C194.383 38.3155 194.021 37.6602 195.608 37.8015C198.404 38.0503 198.814 42.7614 197.199 44.4474C194.507 47.257 192.219 42.9075 191.968 40.6045C191.741 38.5277 193.389 34.2264 195.535 37.2594" stroke="white" stroke-width="3" stroke-linecap="round"/>
<path d="M196.257 3.02874C195.787 -1.27686 196.372 11.6904 196.381 16.0215C196.383 16.757 196.656 24.8898 196.892 24.7376" stroke="white" stroke-width="3" stroke-linecap="round"/>
<path d="M197.417 6.86175C197.1 3.94696 197.753 12.7193 197.757 15.6514C197.761 18.0599 197.461 20.4968 196.934 22.8493C196.737 23.7259 196.188 24.3808 195.964 25.1823C195.345 27.403 195.807 20.5438 196.187 18.27C196.828 14.4319 198.222 10.7079 198.151 6.78174" stroke="white" stroke-width="3" stroke-linecap="round"/>
</g>
</g>
</svg>
