<svg width="87" height="87" viewBox="0 0 87 87" fill="none" xmlns="http://www.w3.org/2000/svg">
<path d="M84.2643 28.309C84.808 29.7873 84.3492 31.4355 83.1768 32.4891L75.8192 39.184C76.0061 40.5943 76.108 42.0387 76.108 43.5C76.108 44.9613 76.0061 46.4057 75.8192 47.816L83.1768 54.5109C84.3492 55.5644 84.808 57.2127 84.2643 58.691C83.5166 60.7131 82.616 62.6502 81.5795 64.5193L80.7809 65.8957C79.6594 67.7648 78.402 69.532 77.0256 71.1973C76.0231 72.4207 74.3578 72.8285 72.8625 72.3527L63.3979 69.3451C61.1209 71.0953 58.6061 72.5566 55.9213 73.6611L53.7973 83.3637C53.4574 84.91 52.268 86.1334 50.7047 86.3883C48.3598 86.7791 45.9469 86.983 43.483 86.983C41.0192 86.983 38.6063 86.7791 36.2613 86.3883C34.6981 86.1334 33.5086 84.91 33.1688 83.3637L31.0447 73.6611C28.36 72.5566 25.8451 71.0953 23.5682 69.3451L14.1205 72.3697C12.6252 72.8455 10.96 72.4207 9.95744 71.2143C8.58107 69.549 7.32365 67.7818 6.20217 65.9127L5.40353 64.5363C4.36701 62.6672 3.46643 60.7301 2.71877 58.708C2.17502 57.2297 2.63381 55.5814 3.80627 54.5279L11.1639 47.833C10.977 46.4057 10.875 44.9613 10.875 43.5C10.875 42.0387 10.977 40.5943 11.1639 39.184L3.80627 32.4891C2.63381 31.4355 2.17502 29.7873 2.71877 28.309C3.46643 26.2869 4.36701 24.3498 5.40353 22.4807L6.20217 21.1043C7.32365 19.2352 8.58107 17.468 9.95744 15.8027C10.96 14.5793 12.6252 14.1715 14.1205 14.6473L23.5852 17.6549C25.8621 15.9047 28.377 14.4434 31.0617 13.3389L33.1858 3.63633C33.5256 2.09004 34.7151 0.866601 36.2783 0.611719C38.6233 0.203906 41.0361 0 43.5 0C45.9639 0 48.3768 0.203906 50.7217 0.594727C52.285 0.849609 53.4744 2.07305 53.8143 3.61934L55.9383 13.3219C58.6231 14.4264 61.1379 15.8877 63.4149 17.6379L72.8795 14.6303C74.3748 14.1545 76.0401 14.5793 77.0426 15.7857C78.419 17.451 79.6764 19.2182 80.7979 21.0873L81.5965 22.4637C82.633 24.3328 83.5336 26.2699 84.2813 28.292L84.2643 28.309ZM43.5 57.0937C47.1053 57.0937 50.5629 55.6616 53.1122 53.1122C55.6616 50.5629 57.0938 47.1053 57.0938 43.5C57.0938 39.8947 55.6616 36.4371 53.1122 33.8878C50.5629 31.3384 47.1053 29.9062 43.5 29.9062C39.8947 29.9062 36.4371 31.3384 33.8878 33.8878C31.3385 36.4371 29.9063 39.8947 29.9063 43.5C29.9063 47.1053 31.3385 50.5629 33.8878 53.1122C36.4371 55.6616 39.8947 57.0937 43.5 57.0937Z" fill="white"/>
</svg>
