<svg width="2171" height="12" viewBox="0 0 2171 12" fill="none" xmlns="http://www.w3.org/2000/svg">
<g clip-path="url(#clip0_201_164)">
<path fill-rule="evenodd" clip-rule="evenodd" d="M1899.7 0.223755C1899.42 0.223755 1899.15 0.342612 1898.96 0.551086L1890.78 9.55107C1890.2 10.1934 1890.65 11.2237 1891.52 11.2237H1896.82C1897.1 11.2237 1897.37 11.1048 1897.56 10.8964L1905.74 1.89643C1906.32 1.25406 1905.87 0.223755 1905 0.223755H1899.7ZM1430.2 0.223968C1429.92 0.223968 1429.65 0.342811 1429.46 0.551285L1421.28 9.55127C1420.7 10.1936 1421.15 11.2239 1422.02 11.2239H1427.32C1427.6 11.2239 1427.87 11.1051 1428.06 10.8966L1436.24 1.89664C1436.82 1.25427 1436.37 0.223968 1435.5 0.223968H1430.2ZM1152.46 0.551498C1152.65 0.343024 1152.92 0.224167 1153.2 0.224167H1158.5C1159.37 0.224167 1159.82 1.25447 1159.24 1.89684L1151.06 10.8968C1150.87 11.1053 1150.6 11.2241 1150.32 11.2241H1145.02C1144.15 11.2241 1143.7 10.1938 1144.28 9.55149L1152.46 0.551498ZM1165.2 0.224167C1164.92 0.224167 1164.65 0.343024 1164.46 0.551498L1156.28 9.55149C1155.7 10.1938 1156.15 11.2241 1157.02 11.2241H1162.32C1162.6 11.2241 1162.87 11.1053 1163.06 10.8968L1171.24 1.89684C1171.82 1.25447 1171.37 0.224167 1170.5 0.224167H1165.2ZM1176.46 0.551498C1176.65 0.343024 1176.92 0.224167 1177.2 0.224167H1182.5C1183.37 0.224167 1183.82 1.25447 1183.24 1.89684L1175.06 10.8968C1174.87 11.1053 1174.6 11.2241 1174.32 11.2241H1169.02C1168.15 11.2241 1167.7 10.1938 1168.28 9.55149L1176.46 0.551498ZM1189.2 0.224167C1188.92 0.224167 1188.65 0.343024 1188.46 0.551498L1180.28 9.55149C1179.7 10.1938 1180.15 11.2241 1181.02 11.2241H1186.32C1186.6 11.2241 1186.87 11.1053 1187.06 10.8968L1195.24 1.89684C1195.82 1.25447 1195.37 0.224167 1194.5 0.224167H1189.2ZM1200.46 0.551498C1200.65 0.343024 1200.92 0.224167 1201.2 0.224167H1206.5C1207.37 0.224167 1207.82 1.25447 1207.24 1.89684L1199.06 10.8968C1198.87 11.1053 1198.6 11.2241 1198.32 11.2241H1193.02C1192.15 11.2241 1191.7 10.1938 1192.28 9.55149L1200.46 0.551498ZM1213.2 0.224167C1212.92 0.224167 1212.65 0.343024 1212.46 0.551498L1204.28 9.55149C1203.7 10.1938 1204.15 11.2241 1205.02 11.2241H1210.32C1210.6 11.2241 1210.87 11.1053 1211.06 10.8968L1219.24 1.89684C1219.82 1.25447 1219.37 0.224167 1218.5 0.224167H1213.2ZM1332.96 0.551498C1333.15 0.343024 1333.42 0.224167 1333.7 0.224167H1339C1339.87 0.224167 1340.32 1.25447 1339.74 1.89684L1331.56 10.8968C1331.37 11.1053 1331.1 11.2241 1330.82 11.2241H1325.52C1324.65 11.2241 1324.2 10.1938 1324.78 9.55149L1332.96 0.551498ZM1345.7 0.224167C1345.42 0.224167 1345.15 0.343024 1344.96 0.551498L1336.78 9.55149C1336.2 10.1938 1336.65 11.2241 1337.52 11.2241H1342.82C1343.1 11.2241 1343.37 11.1053 1343.56 10.8968L1351.74 1.89684C1352.32 1.25447 1351.87 0.224167 1351 0.224167H1345.7ZM1356.96 0.551498C1357.15 0.343024 1357.42 0.224167 1357.7 0.224167H1363C1363.87 0.224167 1364.32 1.25447 1363.74 1.89684L1355.56 10.8968C1355.37 11.1053 1355.1 11.2241 1354.82 11.2241H1349.52C1348.65 11.2241 1348.2 10.1938 1348.78 9.55149L1356.96 0.551498ZM1369.7 0.224167C1369.42 0.224167 1369.15 0.343024 1368.96 0.551498L1360.78 9.55149C1360.2 10.1938 1360.65 11.2241 1361.52 11.2241H1366.82C1367.1 11.2241 1367.37 11.1053 1367.56 10.8968L1375.74 1.89684C1376.32 1.25447 1375.87 0.224167 1375 0.224167H1369.7ZM1380.96 0.551498C1381.15 0.343024 1381.42 0.224167 1381.7 0.224167H1387C1387.87 0.224167 1388.32 1.25447 1387.74 1.89684L1379.56 10.8968C1379.37 11.1053 1379.1 11.2241 1378.82 11.2241H1373.52C1372.65 11.2241 1372.2 10.1938 1372.78 9.55149L1380.96 0.551498ZM1393.7 0.224167C1393.42 0.224167 1393.15 0.343024 1392.96 0.551498L1384.78 9.55149C1384.2 10.1938 1384.65 11.2241 1385.52 11.2241H1390.82C1391.1 11.2241 1391.37 11.1053 1391.56 10.8968L1399.74 1.89684C1400.32 1.25447 1399.87 0.224167 1399 0.224167H1393.7ZM1404.96 0.551498C1405.15 0.343024 1405.42 0.224167 1405.7 0.224167H1411C1411.87 0.224167 1412.32 1.25447 1411.74 1.89684L1403.56 10.8968C1403.37 11.1053 1403.1 11.2241 1402.82 11.2241H1397.52C1396.65 11.2241 1396.2 10.1938 1396.78 9.55149L1404.96 0.551498ZM1417.7 0.224167C1417.42 0.224167 1417.15 0.343024 1416.96 0.551498L1408.78 9.55149C1408.2 10.1938 1408.65 11.2241 1409.52 11.2241H1414.82C1415.1 11.2241 1415.37 11.1053 1415.56 10.8968L1423.74 1.89684C1424.32 1.25447 1423.87 0.224167 1423 0.224167H1417.7ZM1224.96 0.551498C1225.15 0.343024 1225.42 0.224167 1225.7 0.224167H1231C1231.87 0.224167 1232.32 1.25447 1231.74 1.89684L1223.56 10.8968C1223.37 11.1053 1223.1 11.2241 1222.82 11.2241H1217.52C1216.65 11.2241 1216.2 10.1938 1216.78 9.55149L1224.96 0.551498ZM1237.7 0.224167C1237.42 0.224167 1237.15 0.343024 1236.96 0.551498L1228.78 9.55149C1228.2 10.1938 1228.65 11.2241 1229.52 11.2241H1234.82C1235.1 11.2241 1235.37 11.1053 1235.56 10.8968L1243.74 1.89684C1244.32 1.25447 1243.87 0.224167 1243 0.224167H1237.7ZM1248.96 0.551498C1249.15 0.343024 1249.42 0.224167 1249.7 0.224167H1255C1255.87 0.224167 1256.32 1.25447 1255.74 1.89684L1247.56 10.8968C1247.37 11.1053 1247.1 11.2241 1246.82 11.2241H1241.52C1240.65 11.2241 1240.2 10.1938 1240.78 9.55149L1248.96 0.551498ZM1261.7 0.224167C1261.42 0.224167 1261.15 0.343024 1260.96 0.551498L1252.78 9.55149C1252.2 10.1938 1252.65 11.2241 1253.52 11.2241H1258.82C1259.1 11.2241 1259.37 11.1053 1259.56 10.8968L1267.74 1.89684C1268.32 1.25447 1267.87 0.224167 1267 0.224167H1261.7ZM1272.96 0.551498C1273.15 0.343024 1273.42 0.224167 1273.7 0.224167H1279C1279.87 0.224167 1280.32 1.25447 1279.74 1.89684L1271.56 10.8968C1271.37 11.1053 1271.1 11.2241 1270.82 11.2241H1265.52C1264.65 11.2241 1264.2 10.1938 1264.78 9.55149L1272.96 0.551498ZM1285.7 0.224167C1285.42 0.224167 1285.15 0.343024 1284.96 0.551498L1276.78 9.55149C1276.2 10.1938 1276.65 11.2241 1277.52 11.2241H1282.82C1283.1 11.2241 1283.37 11.1053 1283.56 10.8968L1291.74 1.89684C1292.32 1.25447 1291.87 0.224167 1291 0.224167H1285.7ZM1296.96 0.551498C1297.15 0.343024 1297.42 0.224167 1297.7 0.224167H1303C1303.87 0.224167 1304.32 1.25447 1303.74 1.89684L1295.56 10.8968C1295.37 11.1053 1295.1 11.2241 1294.82 11.2241H1289.52C1288.65 11.2241 1288.2 10.1938 1288.78 9.55149L1296.96 0.551498ZM1309.7 0.224167C1309.42 0.224167 1309.15 0.343024 1308.96 0.551498L1300.78 9.55149C1300.2 10.1938 1300.65 11.2241 1301.52 11.2241H1306.82C1307.1 11.2241 1307.37 11.1053 1307.56 10.8968L1315.74 1.89684C1316.32 1.25447 1315.87 0.224167 1315 0.224167H1309.7ZM1320.96 0.551498C1321.15 0.343024 1321.42 0.224167 1321.7 0.224167H1327C1327.87 0.224167 1328.32 1.25447 1327.74 1.89684L1319.56 10.8968C1319.37 11.1053 1319.1 11.2241 1318.82 11.2241H1313.52C1312.65 11.2241 1312.2 10.1938 1312.78 9.55149L1320.96 0.551498ZM1441.46 0.551285C1441.65 0.342811 1441.92 0.223968 1442.2 0.223968H1447.5C1448.37 0.223968 1448.82 1.25427 1448.24 1.89664L1440.06 10.8966C1439.87 11.1051 1439.6 11.2239 1439.32 11.2239H1434.02C1433.15 11.2239 1432.7 10.1936 1433.28 9.55127L1441.46 0.551285ZM1454.2 0.223968C1453.92 0.223968 1453.65 0.342811 1453.46 0.551285L1445.28 9.55127C1444.7 10.1936 1445.15 11.2239 1446.02 11.2239H1451.32C1451.6 11.2239 1451.87 11.1051 1452.06 10.8966L1460.24 1.89664C1460.82 1.25427 1460.37 0.223968 1459.5 0.223968H1454.2ZM1465.46 0.551285C1465.65 0.342811 1465.92 0.223968 1466.2 0.223968H1471.5C1472.37 0.223968 1472.82 1.25427 1472.24 1.89664L1464.06 10.8966C1463.87 11.1051 1463.6 11.2239 1463.32 11.2239H1458.02C1457.15 11.2239 1456.7 10.1936 1457.28 9.55127L1465.46 0.551285ZM1478.2 0.223968C1477.92 0.223968 1477.65 0.342811 1477.46 0.551285L1469.28 9.55127C1468.7 10.1936 1469.15 11.2239 1470.02 11.2239H1475.32C1475.6 11.2239 1475.87 11.1051 1476.06 10.8966L1484.24 1.89664C1484.82 1.25427 1484.37 0.223968 1483.5 0.223968H1478.2ZM1489.46 0.551285C1489.65 0.342811 1489.92 0.223968 1490.2 0.223968H1495.5C1496.37 0.223968 1496.82 1.25427 1496.24 1.89664L1488.06 10.8966C1487.87 11.1051 1487.6 11.2239 1487.32 11.2239H1482.02C1481.15 11.2239 1480.7 10.1936 1481.28 9.55127L1489.46 0.551285ZM1610.7 0.223968C1610.42 0.223968 1610.15 0.342811 1609.96 0.551285L1601.78 9.55127C1601.2 10.1936 1601.65 11.2239 1602.52 11.2239H1607.82C1608.1 11.2239 1608.37 11.1051 1608.56 10.8966L1616.74 1.89664C1617.32 1.25427 1616.87 0.223968 1616 0.223968H1610.7ZM1621.96 0.551285C1622.15 0.342811 1622.42 0.223968 1622.7 0.223968H1628C1628.87 0.223968 1629.32 1.25427 1628.74 1.89664L1620.56 10.8966C1620.37 11.1051 1620.1 11.2239 1619.82 11.2239H1614.52C1613.65 11.2239 1613.2 10.1936 1613.78 9.55127L1621.96 0.551285ZM1634.7 0.223968C1634.42 0.223968 1634.15 0.342811 1633.96 0.551285L1625.78 9.55127C1625.2 10.1936 1625.65 11.2239 1626.52 11.2239H1631.82C1632.1 11.2239 1632.37 11.1051 1632.56 10.8966L1640.74 1.89664C1641.32 1.25427 1640.87 0.223968 1640 0.223968H1634.7ZM1645.96 0.551285C1646.15 0.342811 1646.42 0.223968 1646.7 0.223968H1652C1652.87 0.223968 1653.32 1.25427 1652.74 1.89664L1644.56 10.8966C1644.37 11.1051 1644.1 11.2239 1643.82 11.2239H1638.52C1637.65 11.2239 1637.2 10.1936 1637.78 9.55127L1645.96 0.551285ZM1658.7 0.223968C1658.42 0.223968 1658.15 0.342811 1657.96 0.551285L1649.78 9.55127C1649.2 10.1936 1649.65 11.2239 1650.52 11.2239H1655.82C1656.1 11.2239 1656.37 11.1051 1656.56 10.8966L1664.74 1.89664C1665.32 1.25427 1664.87 0.223968 1664 0.223968H1658.7ZM1669.96 0.551285C1670.15 0.342811 1670.42 0.223968 1670.7 0.223968H1676C1676.87 0.223968 1677.32 1.25427 1676.74 1.89664L1668.56 10.8966C1668.37 11.1051 1668.1 11.2239 1667.82 11.2239H1662.52C1661.65 11.2239 1661.2 10.1936 1661.78 9.55127L1669.96 0.551285ZM1682.7 0.223968C1682.42 0.223968 1682.15 0.342811 1681.96 0.551285L1673.78 9.55127C1673.2 10.1936 1673.65 11.2239 1674.52 11.2239H1679.82C1680.1 11.2239 1680.37 11.1051 1680.56 10.8966L1688.74 1.89664C1689.32 1.25427 1688.87 0.223968 1688 0.223968H1682.7ZM1693.96 0.551285C1694.15 0.342811 1694.42 0.223968 1694.7 0.223968H1695.2H1700H1700.5C1701.37 0.223968 1701.82 1.25427 1701.24 1.89664L1693.06 10.8966C1692.87 11.1051 1692.6 11.2239 1692.32 11.2239H1691.82H1687.02H1686.52C1685.65 11.2239 1685.2 10.1936 1685.78 9.55127L1693.96 0.551285ZM1502.7 0.223968C1502.42 0.223968 1502.15 0.342811 1501.96 0.551285L1493.78 9.55127C1493.2 10.1936 1493.65 11.2239 1494.52 11.2239H1499.82C1500.1 11.2239 1500.37 11.1051 1500.56 10.8966L1508.74 1.89664C1509.32 1.25427 1508.87 0.223968 1508 0.223968H1502.7ZM1513.96 0.551285C1514.15 0.342811 1514.42 0.223968 1514.7 0.223968H1520C1520.87 0.223968 1521.32 1.25427 1520.74 1.89664L1512.56 10.8966C1512.37 11.1051 1512.1 11.2239 1511.82 11.2239H1506.52C1505.65 11.2239 1505.2 10.1936 1505.78 9.55127L1513.96 0.551285ZM1526.7 0.223968C1526.42 0.223968 1526.15 0.342811 1525.96 0.551285L1517.78 9.55127C1517.2 10.1936 1517.65 11.2239 1518.52 11.2239H1523.82C1524.1 11.2239 1524.37 11.1051 1524.56 10.8966L1532.74 1.89664C1533.32 1.25427 1532.87 0.223968 1532 0.223968H1526.7ZM1537.96 0.551285C1538.15 0.342811 1538.42 0.223968 1538.7 0.223968H1544C1544.87 0.223968 1545.32 1.25427 1544.74 1.89664L1536.56 10.8966C1536.37 11.1051 1536.1 11.2239 1535.82 11.2239H1530.52C1529.65 11.2239 1529.2 10.1936 1529.78 9.55127L1537.96 0.551285ZM1550.7 0.223968C1550.42 0.223968 1550.15 0.342811 1549.96 0.551285L1541.78 9.55127C1541.2 10.1936 1541.65 11.2239 1542.52 11.2239H1547.82C1548.1 11.2239 1548.37 11.1051 1548.56 10.8966L1556.74 1.89664C1557.32 1.25427 1556.87 0.223968 1556 0.223968H1550.7ZM1561.96 0.551285C1562.15 0.342811 1562.42 0.223968 1562.7 0.223968H1568C1568.87 0.223968 1569.32 1.25427 1568.74 1.89664L1560.56 10.8966C1560.37 11.1051 1560.1 11.2239 1559.82 11.2239H1554.52C1553.65 11.2239 1553.2 10.1936 1553.78 9.55127L1561.96 0.551285ZM1574.7 0.223968C1574.42 0.223968 1574.15 0.342811 1573.96 0.551285L1565.78 9.55127C1565.2 10.1936 1565.65 11.2239 1566.52 11.2239H1571.82C1572.1 11.2239 1572.37 11.1051 1572.56 10.8966L1580.74 1.89664C1581.32 1.25427 1580.87 0.223968 1580 0.223968H1574.7ZM1585.96 0.551285C1586.15 0.342811 1586.42 0.223968 1586.7 0.223968H1592C1592.87 0.223968 1593.32 1.25427 1592.74 1.89664L1584.56 10.8966C1584.37 11.1051 1584.1 11.2239 1583.82 11.2239H1578.52C1577.65 11.2239 1577.2 10.1936 1577.78 9.55127L1585.96 0.551285ZM1598.7 0.223968C1598.42 0.223968 1598.15 0.342811 1597.96 0.551285L1589.78 9.55127C1589.2 10.1936 1589.65 11.2239 1590.52 11.2239H1595.82C1596.1 11.2239 1596.37 11.1051 1596.56 10.8966L1604.74 1.89664C1605.32 1.25427 1604.87 0.223968 1604 0.223968H1598.7ZM1802.46 0.551285C1802.65 0.342811 1802.92 0.223968 1803.2 0.223968H1808.5C1809.37 0.223968 1809.82 1.25427 1809.24 1.89664L1801.06 10.8966C1800.87 11.1051 1800.6 11.2239 1800.32 11.2239H1795.02C1794.15 11.2239 1793.7 10.1936 1794.28 9.55127L1802.46 0.551285ZM1815.2 0.223968C1814.92 0.223968 1814.65 0.342811 1814.46 0.551285L1806.28 9.55127C1805.7 10.1936 1806.15 11.2239 1807.02 11.2239H1812.32C1812.6 11.2239 1812.87 11.1051 1813.06 10.8966L1821.24 1.89664C1821.82 1.25427 1821.37 0.223968 1820.5 0.223968H1815.2ZM1826.46 0.551285C1826.65 0.342811 1826.92 0.223968 1827.2 0.223968H1832.5C1833.37 0.223968 1833.82 1.25427 1833.24 1.89664L1825.06 10.8966C1824.87 11.1051 1824.6 11.2239 1824.32 11.2239H1819.02C1818.15 11.2239 1817.7 10.1936 1818.28 9.55127L1826.46 0.551285ZM1839.2 0.223968C1838.92 0.223968 1838.65 0.342811 1838.46 0.551285L1830.28 9.55127C1829.7 10.1936 1830.15 11.2239 1831.02 11.2239H1836.32C1836.6 11.2239 1836.87 11.1051 1837.06 10.8966L1845.24 1.89664C1845.82 1.25427 1845.37 0.223968 1844.5 0.223968H1839.2ZM1850.46 0.551285C1850.65 0.342811 1850.92 0.223968 1851.2 0.223968H1856.5C1857.37 0.223968 1857.82 1.25427 1857.24 1.89664L1849.06 10.8966C1848.87 11.1051 1848.6 11.2239 1848.32 11.2239H1843.02C1842.15 11.2239 1841.7 10.1936 1842.28 9.55127L1850.46 0.551285ZM1863.2 0.223968C1862.92 0.223968 1862.65 0.342811 1862.46 0.551285L1854.28 9.55127C1853.7 10.1936 1854.15 11.2239 1855.02 11.2239H1860.32C1860.6 11.2239 1860.87 11.1051 1861.06 10.8966L1869.24 1.89664C1869.82 1.25427 1869.37 0.223968 1868.5 0.223968H1863.2ZM1874.46 0.551285C1874.65 0.342811 1874.92 0.223968 1875.2 0.223968H1880.5C1881.37 0.223968 1881.82 1.25427 1881.24 1.89664L1873.06 10.8966C1872.87 11.1051 1872.6 11.2239 1872.32 11.2239H1867.02C1866.15 11.2239 1865.7 10.1936 1866.28 9.55127L1874.46 0.551285ZM1887.2 0.223968C1886.92 0.223968 1886.65 0.342811 1886.46 0.551285L1878.28 9.55127C1877.7 10.1936 1878.15 11.2239 1879.02 11.2239H1884.32C1884.6 11.2239 1884.87 11.1051 1885.06 10.8966L1893.24 1.89664C1893.82 1.25427 1893.37 0.223968 1892.5 0.223968H1887.2ZM1707.2 0.223968C1706.92 0.223968 1706.65 0.342811 1706.46 0.551285L1698.28 9.55127C1697.7 10.1936 1698.15 11.2239 1699.02 11.2239H1704.32C1704.6 11.2239 1704.87 11.1051 1705.06 10.8966L1713.24 1.89664C1713.82 1.25427 1713.37 0.223968 1712.5 0.223968H1707.2ZM1718.46 0.551285C1718.65 0.342811 1718.92 0.223968 1719.2 0.223968H1724.5C1725.37 0.223968 1725.82 1.25427 1725.24 1.89664L1717.06 10.8966C1716.87 11.1051 1716.6 11.2239 1716.32 11.2239H1711.02C1710.15 11.2239 1709.7 10.1936 1710.28 9.55127L1718.46 0.551285ZM1731.2 0.223968C1730.92 0.223968 1730.65 0.342811 1730.46 0.551285L1722.28 9.55127C1721.7 10.1936 1722.15 11.2239 1723.02 11.2239H1728.32C1728.6 11.2239 1728.87 11.1051 1729.06 10.8966L1737.24 1.89664C1737.82 1.25427 1737.37 0.223968 1736.5 0.223968H1731.2ZM1742.46 0.551285C1742.65 0.342811 1742.92 0.223968 1743.2 0.223968H1748.5C1749.37 0.223968 1749.82 1.25427 1749.24 1.89664L1741.06 10.8966C1740.87 11.1051 1740.6 11.2239 1740.32 11.2239H1735.02C1734.15 11.2239 1733.7 10.1936 1734.28 9.55127L1742.46 0.551285ZM1755.2 0.223968C1754.92 0.223968 1754.65 0.342811 1754.46 0.551285L1746.28 9.55127C1745.7 10.1936 1746.15 11.2239 1747.02 11.2239H1752.32C1752.6 11.2239 1752.87 11.1051 1753.06 10.8966L1761.24 1.89664C1761.82 1.25427 1761.37 0.223968 1760.5 0.223968H1755.2ZM1766.46 0.551285C1766.65 0.342811 1766.92 0.223968 1767.2 0.223968H1772.5C1773.37 0.223968 1773.82 1.25427 1773.24 1.89664L1765.06 10.8966C1764.87 11.1051 1764.6 11.2239 1764.32 11.2239H1759.02C1758.15 11.2239 1757.7 10.1936 1758.28 9.55127L1766.46 0.551285ZM1779.2 0.223968C1778.92 0.223968 1778.65 0.342811 1778.46 0.551285L1770.28 9.55127C1769.7 10.1936 1770.15 11.2239 1771.02 11.2239H1776.32C1776.6 11.2239 1776.87 11.1051 1777.06 10.8966L1785.24 1.89664C1785.82 1.25427 1785.37 0.223968 1784.5 0.223968H1779.2ZM1790.46 0.551285C1790.65 0.342811 1790.92 0.223968 1791.2 0.223968H1796.5C1797.37 0.223968 1797.82 1.25427 1797.24 1.89664L1789.06 10.8966C1788.87 11.1051 1788.6 11.2239 1788.32 11.2239H1783.02C1782.15 11.2239 1781.7 10.1936 1782.28 9.55127L1790.46 0.551285ZM1910.96 0.551086C1911.15 0.342612 1911.42 0.223755 1911.7 0.223755H1917C1917.87 0.223755 1918.32 1.25406 1917.74 1.89643L1909.56 10.8964C1909.37 11.1048 1909.1 11.2237 1908.82 11.2237H1903.52C1902.65 11.2237 1902.2 10.1934 1902.78 9.55107L1910.96 0.551086ZM1923.7 0.223755C1923.42 0.223755 1923.15 0.342612 1922.96 0.551086L1914.78 9.55107C1914.2 10.1934 1914.65 11.2237 1915.52 11.2237H1920.82C1921.1 11.2237 1921.37 11.1048 1921.56 10.8964L1929.74 1.89643C1930.32 1.25406 1929.87 0.223755 1929 0.223755H1923.7ZM1934.96 0.551086C1935.15 0.342612 1935.42 0.223755 1935.7 0.223755H1941C1941.87 0.223755 1942.32 1.25406 1941.74 1.89643L1933.56 10.8964C1933.37 11.1048 1933.1 11.2237 1932.82 11.2237H1927.52C1926.65 11.2237 1926.2 10.1934 1926.78 9.55107L1934.96 0.551086ZM1947.7 0.223755C1947.42 0.223755 1947.15 0.342612 1946.96 0.551086L1938.78 9.55107C1938.2 10.1934 1938.65 11.2237 1939.52 11.2237H1944.82C1945.1 11.2237 1945.37 11.1048 1945.56 10.8964L1953.74 1.89643C1954.32 1.25406 1953.87 0.223755 1953 0.223755H1947.7ZM1958.96 0.551086C1959.15 0.342612 1959.42 0.223755 1959.7 0.223755H1965C1965.87 0.223755 1966.32 1.25406 1965.74 1.89643L1957.56 10.8964C1957.37 11.1048 1957.1 11.2237 1956.82 11.2237H1951.52C1950.65 11.2237 1950.2 10.1934 1950.78 9.55107L1958.96 0.551086ZM2080.2 0.223755C2079.92 0.223755 2079.65 0.342612 2079.46 0.551086L2071.28 9.55107C2070.7 10.1934 2071.15 11.2237 2072.02 11.2237H2077.32C2077.6 11.2237 2077.87 11.1048 2078.06 10.8964L2086.24 1.89643C2086.82 1.25406 2086.37 0.223755 2085.5 0.223755H2080.2ZM2091.46 0.551086C2091.65 0.342612 2091.92 0.223755 2092.2 0.223755H2097.5C2098.37 0.223755 2098.82 1.25406 2098.24 1.89643L2090.06 10.8964C2089.87 11.1048 2089.6 11.2237 2089.32 11.2237H2084.02C2083.15 11.2237 2082.7 10.1934 2083.28 9.55107L2091.46 0.551086ZM2104.2 0.223755C2103.92 0.223755 2103.65 0.342612 2103.46 0.551086L2095.28 9.55107C2094.7 10.1934 2095.15 11.2237 2096.02 11.2237H2101.32C2101.6 11.2237 2101.87 11.1048 2102.06 10.8964L2110.24 1.89643C2110.82 1.25406 2110.37 0.223755 2109.5 0.223755H2104.2ZM2115.46 0.551086C2115.65 0.342612 2115.92 0.223755 2116.2 0.223755H2121.5C2122.37 0.223755 2122.82 1.25406 2122.24 1.89643L2114.06 10.8964C2113.87 11.1048 2113.6 11.2237 2113.32 11.2237H2108.02C2107.15 11.2237 2106.7 10.1934 2107.28 9.55107L2115.46 0.551086ZM2128.2 0.223755C2127.92 0.223755 2127.65 0.342612 2127.46 0.551086L2119.28 9.55107C2118.7 10.1934 2119.15 11.2237 2120.02 11.2237H2125.32C2125.6 11.2237 2125.87 11.1048 2126.06 10.8964L2134.24 1.89643C2134.82 1.25406 2134.37 0.223755 2133.5 0.223755H2128.2ZM2139.46 0.551086C2139.65 0.342612 2139.92 0.223755 2140.2 0.223755H2145.5C2146.37 0.223755 2146.82 1.25406 2146.24 1.89643L2138.06 10.8964C2137.87 11.1048 2137.6 11.2237 2137.32 11.2237H2132.02C2131.15 11.2237 2130.7 10.1934 2131.28 9.55107L2139.46 0.551086ZM2152.2 0.223755C2151.92 0.223755 2151.65 0.342612 2151.46 0.551086L2143.28 9.55107C2142.7 10.1934 2143.15 11.2237 2144.02 11.2237H2149.32C2149.6 11.2237 2149.87 11.1048 2150.06 10.8964L2158.24 1.89643C2158.82 1.25406 2158.37 0.223755 2157.5 0.223755H2152.2ZM2163.46 0.551086C2163.65 0.342612 2163.92 0.223755 2164.2 0.223755H2169.5C2170.37 0.223755 2170.82 1.25406 2170.24 1.89643L2162.06 10.8964C2161.87 11.1048 2161.6 11.2237 2161.32 11.2237H2156.02C2155.15 11.2237 2154.7 10.1934 2155.28 9.55107L2163.46 0.551086ZM1972.2 0.223755C1971.92 0.223755 1971.65 0.342612 1971.46 0.551086L1963.28 9.55107C1962.7 10.1934 1963.15 11.2237 1964.02 11.2237H1969.32C1969.6 11.2237 1969.87 11.1048 1970.06 10.8964L1978.24 1.89643C1978.82 1.25406 1978.37 0.223755 1977.5 0.223755H1972.2ZM1983.46 0.551086C1983.65 0.342612 1983.92 0.223755 1984.2 0.223755H1989.5C1990.37 0.223755 1990.82 1.25406 1990.24 1.89643L1982.06 10.8964C1981.87 11.1048 1981.6 11.2237 1981.32 11.2237H1976.02C1975.15 11.2237 1974.7 10.1934 1975.28 9.55107L1983.46 0.551086ZM1996.2 0.223755C1995.92 0.223755 1995.65 0.342612 1995.46 0.551086L1987.28 9.55107C1986.7 10.1934 1987.15 11.2237 1988.02 11.2237H1993.32C1993.6 11.2237 1993.87 11.1048 1994.06 10.8964L2002.24 1.89643C2002.82 1.25406 2002.37 0.223755 2001.5 0.223755H1996.2ZM2007.46 0.551086C2007.65 0.342612 2007.92 0.223755 2008.2 0.223755H2013.5C2014.37 0.223755 2014.82 1.25406 2014.24 1.89643L2006.06 10.8964C2005.87 11.1048 2005.6 11.2237 2005.32 11.2237H2000.02C1999.15 11.2237 1998.7 10.1934 1999.28 9.55107L2007.46 0.551086ZM2020.2 0.223755C2019.92 0.223755 2019.65 0.342612 2019.46 0.551086L2011.28 9.55107C2010.7 10.1934 2011.15 11.2237 2012.02 11.2237H2017.32C2017.6 11.2237 2017.87 11.1048 2018.06 10.8964L2026.24 1.89643C2026.82 1.25406 2026.37 0.223755 2025.5 0.223755H2020.2ZM2031.46 0.551086C2031.65 0.342612 2031.92 0.223755 2032.2 0.223755H2037.5C2038.37 0.223755 2038.82 1.25406 2038.24 1.89643L2030.06 10.8964C2029.87 11.1048 2029.6 11.2237 2029.32 11.2237H2024.02C2023.15 11.2237 2022.7 10.1934 2023.28 9.55107L2031.46 0.551086ZM2044.2 0.223755C2043.92 0.223755 2043.65 0.342612 2043.46 0.551086L2035.28 9.55107C2034.7 10.1934 2035.15 11.2237 2036.02 11.2237H2041.32C2041.6 11.2237 2041.87 11.1048 2042.06 10.8964L2050.24 1.89643C2050.82 1.25406 2050.37 0.223755 2049.5 0.223755H2044.2ZM2055.46 0.551086C2055.65 0.342612 2055.92 0.223755 2056.2 0.223755H2061.5C2062.37 0.223755 2062.82 1.25406 2062.24 1.89643L2054.06 10.8964C2053.87 11.1048 2053.6 11.2237 2053.32 11.2237H2048.02C2047.15 11.2237 2046.7 10.1934 2047.28 9.55107L2055.46 0.551086ZM2068.2 0.223755C2067.92 0.223755 2067.65 0.342612 2067.46 0.551086L2059.28 9.55107C2058.7 10.1934 2059.15 11.2237 2060.02 11.2237H2065.32C2065.6 11.2237 2065.87 11.1048 2066.06 10.8964L2074.24 1.89643C2074.82 1.25406 2074.37 0.223755 2073.5 0.223755H2068.2ZM1073.08 11.0004H1074.89V5.35906H1069.78V7.35366H1072.79C1072.67 7.94905 1071.97 9.0803 1070.31 9.0803C1068.68 9.0803 1067.3 7.93415 1067.3 5.73117C1067.3 3.37934 1068.9 2.42675 1070.26 2.42675C1071.93 2.42675 1072.6 3.61752 1072.75 4.27246L1074.91 3.48356C1074.47 2.00995 1073.13 0.223755 1070.26 0.223755C1067.42 0.223755 1065.03 2.41182 1065.03 5.73117C1065.03 9.06541 1067.32 11.2237 1070.12 11.2237C1071.55 11.2237 1072.5 10.5985 1072.94 9.92875L1073.08 11.0004ZM1037.81 8.7826H1036.5V2.6649H1037.81C1039.35 2.6649 1040.61 3.6175 1040.61 5.73117C1040.61 7.84484 1039.35 8.7826 1037.81 8.7826ZM1034.26 11.0004H1037.89C1040.92 11.0004 1042.95 8.99098 1042.95 5.73117C1042.95 2.47136 1040.92 0.447037 1037.9 0.447037H1034.26V11.0004ZM1050.21 8.85703L1050.93 11.0004H1053.37L1049.63 0.447037H1047.03L1043.25 11.0004H1045.6L1046.32 8.85703H1050.21ZM1047.06 6.7136L1048.29 3.06679L1049.5 6.7136H1047.06ZM1063.34 11.0004H1060.97L1056.83 4.06408V11.0004H1054.61V0.447037H1057.33L1061.1 6.86245V0.447037H1063.34V11.0004ZM1083.17 11.0004H1076.79V0.447037H1083.16V2.6649H1079.03V4.67436H1082.77V6.74337H1079.03V8.76772H1083.17V11.0004ZM1088.06 7.07084L1089.86 11.0004H1092.32L1090.28 6.72847C1091.52 6.26703 1092.27 5.18045 1092.27 3.75149C1092.27 1.87598 1090.99 0.447037 1089.01 0.447037H1085.03V11.0004H1087.27V7.07084H1088.06ZM1088.58 5.04647H1087.27V2.48629H1088.58C1089.51 2.48629 1090 2.97747 1090 3.76638C1090 4.51062 1089.51 5.04647 1088.58 5.04647ZM1104.73 11.0004H1096.75V8.73795L1101.6 2.69467H1096.96V0.447037H1104.67V2.62024L1099.71 8.75283H1104.73V11.0004ZM1110.97 8.90168C1109.57 8.90168 1108.07 7.91927 1108.07 5.7163C1108.07 3.51332 1109.57 2.51606 1110.97 2.51606C1112.36 2.51606 1113.86 3.51332 1113.86 5.7163C1113.86 7.91927 1112.36 8.90168 1110.97 8.90168ZM1110.97 0.223755C1108.14 0.223755 1105.74 2.38205 1105.74 5.73117C1105.74 9.06541 1108.14 11.2237 1110.97 11.2237C1113.79 11.2237 1116.19 9.06541 1116.19 5.73117C1116.19 2.38205 1113.79 0.223755 1110.97 0.223755ZM1126.61 11.0004H1124.24L1120.11 4.06408V11.0004H1117.88V0.447037H1120.6L1124.37 6.86245V0.447037H1126.61V11.0004ZM1128.88 11.0004H1135.26V8.76772H1131.12V6.74337H1134.86V4.67436H1131.12V2.6649H1135.25V0.447037H1128.88V11.0004Z" fill="url(#paint0_linear_201_164)"/>
<path fill-rule="evenodd" clip-rule="evenodd" d="M755.681 0C755.401 0 755.131 0.118853 754.941 0.327327L746.761 9.32733C746.181 9.9697 746.631 11 747.501 11H752.801C753.081 11 753.351 10.8811 753.541 10.6727L761.721 1.67267C762.301 1.0303 761.851 0 760.981 0H755.681ZM286.183 0.000205994C285.902 0.000205994 285.633 0.119059 285.443 0.327533L277.262 9.32753C276.678 9.96991 277.133 11.0002 278.002 11.0002H283.299C283.58 11.0002 283.849 10.8814 284.039 10.6729L292.22 1.67288C292.804 1.03051 292.349 0.000205994 291.48 0.000205994H286.183ZM8.44323 0.327739C8.63323 0.119265 8.90222 0.000411987 9.18322 0.000411987H14.4802C15.3492 0.000411987 15.8042 1.03071 15.2202 1.67308L7.03918 10.6731C6.84918 10.8816 6.58019 11.0004 6.29919 11.0004H1.00219C0.133188 11.0004 -0.321802 9.97011 0.262198 9.32774L8.44323 0.327739ZM21.1832 0.000411987C20.9022 0.000411987 20.6332 0.119265 20.4432 0.327739L12.2622 9.32774C11.6782 9.97011 12.1332 11.0004 13.0022 11.0004H18.2992C18.5802 11.0004 18.8492 10.8816 19.0392 10.6731L27.2202 1.67308C27.8042 1.03071 27.3492 0.000411987 26.4802 0.000411987H21.1832ZM32.4432 0.327739C32.6332 0.119265 32.9022 0.000411987 33.1832 0.000411987H38.4802C39.3492 0.000411987 39.8042 1.03071 39.2202 1.67308L31.0392 10.6731C30.8492 10.8816 30.5802 11.0004 30.2992 11.0004H25.0022C24.1332 11.0004 23.6782 9.97011 24.2622 9.32774L32.4432 0.327739ZM45.1832 0.000411987C44.9022 0.000411987 44.6332 0.119265 44.4432 0.327739L36.2622 9.32774C35.6782 9.97011 36.1332 11.0004 37.0022 11.0004H42.2992C42.5802 11.0004 42.8492 10.8816 43.0392 10.6731L51.2202 1.67308C51.8042 1.03071 51.3492 0.000411987 50.4802 0.000411987H45.1832ZM56.4432 0.327739C56.6332 0.119265 56.9022 0.000411987 57.1832 0.000411987H62.4802C63.3492 0.000411987 63.8042 1.03071 63.2202 1.67308L55.0392 10.6731C54.8492 10.8816 54.5802 11.0004 54.2992 11.0004H49.0022C48.1332 11.0004 47.6782 9.97011 48.2622 9.32774L56.4432 0.327739ZM69.1832 0.000411987C68.9022 0.000411987 68.6332 0.119265 68.4432 0.327739L60.2622 9.32774C59.6782 9.97011 60.1332 11.0004 61.0022 11.0004H66.2992C66.5802 11.0004 66.8492 10.8816 67.0392 10.6731L75.2202 1.67308C75.8042 1.03071 75.3492 0.000411987 74.4802 0.000411987H69.1832ZM188.943 0.327739C189.133 0.119265 189.402 0.000411987 189.683 0.000411987H194.98C195.849 0.000411987 196.304 1.03071 195.72 1.67308L187.539 10.6731C187.349 10.8816 187.08 11.0004 186.799 11.0004H181.502C180.633 11.0004 180.178 9.97011 180.762 9.32774L188.943 0.327739ZM201.683 0.000411987C201.402 0.000411987 201.133 0.119265 200.943 0.327739L192.762 9.32774C192.178 9.97011 192.633 11.0004 193.502 11.0004H198.799C199.08 11.0004 199.349 10.8816 199.539 10.6731L207.72 1.67308C208.304 1.03071 207.849 0.000411987 206.98 0.000411987H201.683ZM212.943 0.327739C213.133 0.119265 213.402 0.000411987 213.683 0.000411987H218.98C219.849 0.000411987 220.304 1.03071 219.72 1.67308L211.539 10.6731C211.349 10.8816 211.08 11.0004 210.799 11.0004H205.502C204.633 11.0004 204.178 9.97011 204.762 9.32774L212.943 0.327739ZM225.683 0.000411987C225.402 0.000411987 225.133 0.119265 224.943 0.327739L216.762 9.32774C216.178 9.97011 216.633 11.0004 217.502 11.0004H222.799C223.08 11.0004 223.349 10.8816 223.539 10.6731L231.72 1.67308C232.304 1.03071 231.849 0.000411987 230.98 0.000411987H225.683ZM236.943 0.327739C237.133 0.119265 237.402 0.000411987 237.683 0.000411987H242.98C243.849 0.000411987 244.304 1.03071 243.72 1.67308L235.539 10.6731C235.349 10.8816 235.08 11.0004 234.799 11.0004H229.502C228.633 11.0004 228.178 9.97011 228.762 9.32774L236.943 0.327739ZM249.683 0.000411987C249.402 0.000411987 249.133 0.119265 248.943 0.327739L240.762 9.32774C240.178 9.97011 240.633 11.0004 241.502 11.0004H246.799C247.08 11.0004 247.349 10.8816 247.539 10.6731L255.72 1.67308C256.304 1.03071 255.849 0.000411987 254.98 0.000411987H249.683ZM260.943 0.327739C261.133 0.119265 261.402 0.000411987 261.683 0.000411987H266.98C267.849 0.000411987 268.304 1.03071 267.72 1.67308L259.539 10.6731C259.349 10.8816 259.08 11.0004 258.799 11.0004H253.502C252.633 11.0004 252.178 9.97011 252.762 9.32774L260.943 0.327739ZM273.683 0.000411987C273.402 0.000411987 273.133 0.119265 272.943 0.327739L264.762 9.32774C264.178 9.97011 264.633 11.0004 265.502 11.0004H270.799C271.08 11.0004 271.349 10.8816 271.539 10.6731L279.72 1.67308C280.304 1.03071 279.849 0.000411987 278.98 0.000411987H273.683ZM80.9432 0.327739C81.1332 0.119265 81.4022 0.000411987 81.6832 0.000411987H86.9802C87.8492 0.000411987 88.3042 1.03071 87.7202 1.67308L79.5392 10.6731C79.3492 10.8816 79.0802 11.0004 78.7992 11.0004H73.5022C72.6332 11.0004 72.1782 9.97011 72.7622 9.32774L80.9432 0.327739ZM93.6832 0.000411987C93.4022 0.000411987 93.1332 0.119265 92.9432 0.327739L84.7622 9.32774C84.1782 9.97011 84.6332 11.0004 85.5022 11.0004H90.7992C91.0802 11.0004 91.3492 10.8816 91.5392 10.6731L99.7202 1.67308C100.304 1.03071 99.8492 0.000411987 98.9802 0.000411987H93.6832ZM104.943 0.327739C105.133 0.119265 105.402 0.000411987 105.683 0.000411987H110.98C111.849 0.000411987 112.304 1.03071 111.72 1.67308L103.539 10.6731C103.349 10.8816 103.08 11.0004 102.799 11.0004H97.5022C96.6332 11.0004 96.1782 9.97011 96.7622 9.32774L104.943 0.327739ZM117.683 0.000411987C117.402 0.000411987 117.133 0.119265 116.943 0.327739L108.762 9.32774C108.178 9.97011 108.633 11.0004 109.502 11.0004H114.799C115.08 11.0004 115.349 10.8816 115.539 10.6731L123.72 1.67308C124.304 1.03071 123.849 0.000411987 122.98 0.000411987H117.683ZM128.943 0.327739C129.133 0.119265 129.402 0.000411987 129.683 0.000411987H134.98C135.849 0.000411987 136.304 1.03071 135.72 1.67308L127.539 10.6731C127.349 10.8816 127.08 11.0004 126.799 11.0004H121.502C120.633 11.0004 120.178 9.97011 120.762 9.32774L128.943 0.327739ZM141.683 0.000411987C141.402 0.000411987 141.133 0.119265 140.943 0.327739L132.762 9.32774C132.178 9.97011 132.633 11.0004 133.502 11.0004H138.799C139.08 11.0004 139.349 10.8816 139.539 10.6731L147.72 1.67308C148.304 1.03071 147.849 0.000411987 146.98 0.000411987H141.683ZM152.943 0.327739C153.133 0.119265 153.402 0.000411987 153.683 0.000411987H158.98C159.849 0.000411987 160.304 1.03071 159.72 1.67308L151.539 10.6731C151.349 10.8816 151.08 11.0004 150.799 11.0004H145.502C144.633 11.0004 144.178 9.97011 144.762 9.32774L152.943 0.327739ZM165.683 0.000411987C165.402 0.000411987 165.133 0.119265 164.943 0.327739L156.762 9.32774C156.178 9.97011 156.633 11.0004 157.502 11.0004H162.799C163.08 11.0004 163.349 10.8816 163.539 10.6731L171.72 1.67308C172.304 1.03071 171.849 0.000411987 170.98 0.000411987H165.683ZM176.943 0.327739C177.133 0.119265 177.402 0.000411987 177.683 0.000411987H182.98C183.849 0.000411987 184.304 1.03071 183.72 1.67308L175.539 10.6731C175.349 10.8816 175.08 11.0004 174.799 11.0004H169.502C168.633 11.0004 168.178 9.97011 168.762 9.32774L176.943 0.327739ZM297.443 0.327533C297.633 0.119059 297.902 0.000205994 298.183 0.000205994H303.48C304.349 0.000205994 304.804 1.03051 304.22 1.67288L296.039 10.6729C295.849 10.8814 295.58 11.0002 295.299 11.0002H290.002C289.133 11.0002 288.678 9.96991 289.262 9.32753L297.443 0.327533ZM310.183 0.000205994C309.902 0.000205994 309.633 0.119059 309.443 0.327533L301.262 9.32753C300.678 9.96991 301.133 11.0002 302.002 11.0002H307.299C307.58 11.0002 307.849 10.8814 308.039 10.6729L316.22 1.67288C316.804 1.03051 316.349 0.000205994 315.48 0.000205994H310.183ZM321.443 0.327533C321.633 0.119059 321.902 0.000205994 322.183 0.000205994H327.481C328.351 0.000205994 328.801 1.03051 328.221 1.67288L320.039 10.6729C319.849 10.8814 319.58 11.0002 319.299 11.0002H314.002C313.133 11.0002 312.678 9.96991 313.262 9.32753L321.443 0.327533ZM334.181 0.000205994C333.901 0.000205994 333.631 0.119059 333.441 0.327533L325.261 9.32753C324.681 9.96991 325.131 11.0002 326.001 11.0002H331.301C331.581 11.0002 331.851 10.8814 332.041 10.6729L340.221 1.67288C340.801 1.03051 340.351 0.000205994 339.481 0.000205994H334.181ZM345.441 0.327533C345.631 0.119059 345.901 0.000205994 346.181 0.000205994H351.481C352.351 0.000205994 352.801 1.03051 352.221 1.67288L344.041 10.6729C343.851 10.8814 343.581 11.0002 343.301 11.0002H338.001C337.131 11.0002 336.681 9.96991 337.261 9.32753L345.441 0.327533ZM466.681 0.000205994C466.401 0.000205994 466.131 0.119059 465.941 0.327533L457.761 9.32753C457.181 9.96991 457.631 11.0002 458.501 11.0002H463.801C464.081 11.0002 464.351 10.8814 464.541 10.6729L472.721 1.67288C473.301 1.03051 472.851 0.000205994 471.981 0.000205994H466.681ZM477.941 0.327533C478.131 0.119059 478.401 0.000205994 478.681 0.000205994H483.981C484.851 0.000205994 485.301 1.03051 484.721 1.67288L476.541 10.6729C476.351 10.8814 476.081 11.0002 475.801 11.0002H470.501C469.631 11.0002 469.181 9.96991 469.761 9.32753L477.941 0.327533ZM490.681 0.000205994C490.401 0.000205994 490.131 0.119059 489.941 0.327533L481.761 9.32753C481.181 9.96991 481.631 11.0002 482.501 11.0002H487.801C488.081 11.0002 488.351 10.8814 488.541 10.6729L496.721 1.67288C497.301 1.03051 496.851 0.000205994 495.981 0.000205994H490.681ZM501.941 0.327533C502.131 0.119059 502.401 0.000205994 502.681 0.000205994H507.981C508.851 0.000205994 509.301 1.03051 508.721 1.67288L500.541 10.6729C500.351 10.8814 500.081 11.0002 499.801 11.0002H494.501C493.631 11.0002 493.181 9.96991 493.761 9.32753L501.941 0.327533ZM514.681 0.000205994C514.401 0.000205994 514.131 0.119059 513.941 0.327533L505.761 9.32753C505.181 9.96991 505.631 11.0002 506.501 11.0002H511.801C512.081 11.0002 512.351 10.8814 512.541 10.6729L520.721 1.67288C521.301 1.03051 520.851 0.000205994 519.981 0.000205994H514.681ZM525.941 0.327533C526.131 0.119059 526.401 0.000205994 526.681 0.000205994H531.981C532.851 0.000205994 533.301 1.03051 532.721 1.67288L524.541 10.6729C524.351 10.8814 524.081 11.0002 523.801 11.0002H518.501C517.631 11.0002 517.181 9.96991 517.761 9.32753L525.941 0.327533ZM538.681 0.000205994C538.401 0.000205994 538.131 0.119059 537.941 0.327533L529.761 9.32753C529.181 9.96991 529.631 11.0002 530.501 11.0002H535.801C536.081 11.0002 536.351 10.8814 536.541 10.6729L544.721 1.67288C545.301 1.03051 544.851 0.000205994 543.981 0.000205994H538.681ZM549.941 0.327533C550.131 0.119059 550.401 0.000205994 550.681 0.000205994H551.181H555.981H556.481C557.351 0.000205994 557.801 1.03051 557.221 1.67288L549.041 10.6729C548.851 10.8814 548.581 11.0002 548.301 11.0002H547.801H543.001H542.501C541.631 11.0002 541.181 9.96991 541.761 9.32753L549.941 0.327533ZM358.681 0.000205994C358.401 0.000205994 358.131 0.119059 357.941 0.327533L349.761 9.32753C349.181 9.96991 349.631 11.0002 350.501 11.0002H355.801C356.081 11.0002 356.351 10.8814 356.541 10.6729L364.721 1.67288C365.301 1.03051 364.851 0.000205994 363.981 0.000205994H358.681ZM369.941 0.327533C370.131 0.119059 370.401 0.000205994 370.681 0.000205994H375.981C376.851 0.000205994 377.301 1.03051 376.721 1.67288L368.541 10.6729C368.351 10.8814 368.081 11.0002 367.801 11.0002H362.501C361.631 11.0002 361.181 9.96991 361.761 9.32753L369.941 0.327533ZM382.681 0.000205994C382.401 0.000205994 382.131 0.119059 381.941 0.327533L373.761 9.32753C373.181 9.96991 373.631 11.0002 374.501 11.0002H379.801C380.081 11.0002 380.351 10.8814 380.541 10.6729L388.721 1.67288C389.301 1.03051 388.851 0.000205994 387.981 0.000205994H382.681ZM393.941 0.327533C394.131 0.119059 394.401 0.000205994 394.681 0.000205994H399.981C400.851 0.000205994 401.301 1.03051 400.721 1.67288L392.541 10.6729C392.351 10.8814 392.081 11.0002 391.801 11.0002H386.501C385.631 11.0002 385.181 9.96991 385.761 9.32753L393.941 0.327533ZM406.681 0.000205994C406.401 0.000205994 406.131 0.119059 405.941 0.327533L397.761 9.32753C397.181 9.96991 397.631 11.0002 398.501 11.0002H403.801C404.081 11.0002 404.351 10.8814 404.541 10.6729L412.721 1.67288C413.301 1.03051 412.851 0.000205994 411.981 0.000205994H406.681ZM417.941 0.327533C418.131 0.119059 418.401 0.000205994 418.681 0.000205994H423.981C424.851 0.000205994 425.301 1.03051 424.721 1.67288L416.541 10.6729C416.351 10.8814 416.081 11.0002 415.801 11.0002H410.501C409.631 11.0002 409.181 9.96991 409.761 9.32753L417.941 0.327533ZM430.681 0.000205994C430.401 0.000205994 430.131 0.119059 429.941 0.327533L421.761 9.32753C421.181 9.96991 421.631 11.0002 422.501 11.0002H427.801C428.081 11.0002 428.351 10.8814 428.541 10.6729L436.721 1.67288C437.301 1.03051 436.851 0.000205994 435.981 0.000205994H430.681ZM441.941 0.327533C442.131 0.119059 442.401 0.000205994 442.681 0.000205994H447.981C448.851 0.000205994 449.301 1.03051 448.721 1.67288L440.541 10.6729C440.351 10.8814 440.081 11.0002 439.801 11.0002H434.501C433.631 11.0002 433.181 9.96991 433.761 9.32753L441.941 0.327533ZM454.681 0.000205994C454.401 0.000205994 454.131 0.119059 453.941 0.327533L445.761 9.32753C445.181 9.96991 445.631 11.0002 446.501 11.0002H451.801C452.081 11.0002 452.351 10.8814 452.541 10.6729L460.721 1.67288C461.301 1.03051 460.851 0.000205994 459.981 0.000205994H454.681ZM658.441 0.327533C658.631 0.119059 658.901 0.000205994 659.181 0.000205994H664.481C665.351 0.000205994 665.801 1.03051 665.221 1.67288L657.041 10.6729C656.851 10.8814 656.581 11.0002 656.301 11.0002H651.001C650.131 11.0002 649.681 9.96991 650.261 9.32753L658.441 0.327533ZM671.181 0.000205994C670.901 0.000205994 670.631 0.119059 670.441 0.327533L662.261 9.32753C661.681 9.96991 662.131 11.0002 663.001 11.0002H668.301C668.581 11.0002 668.851 10.8814 669.041 10.6729L677.221 1.67288C677.801 1.03051 677.351 0.000205994 676.481 0.000205994H671.181ZM682.441 0.327533C682.631 0.119059 682.901 0.000205994 683.181 0.000205994H688.481C689.351 0.000205994 689.801 1.03051 689.221 1.67288L681.041 10.6729C680.851 10.8814 680.581 11.0002 680.301 11.0002H675.001C674.131 11.0002 673.681 9.96991 674.261 9.32753L682.441 0.327533ZM695.181 0.000205994C694.901 0.000205994 694.631 0.119059 694.441 0.327533L686.261 9.32753C685.681 9.96991 686.131 11.0002 687.001 11.0002H692.301C692.581 11.0002 692.851 10.8814 693.041 10.6729L701.221 1.67288C701.801 1.03051 701.351 0.000205994 700.481 0.000205994H695.181ZM706.441 0.327533C706.631 0.119059 706.901 0.000205994 707.181 0.000205994H712.481C713.351 0.000205994 713.801 1.03051 713.221 1.67288L705.041 10.6729C704.851 10.8814 704.581 11.0002 704.301 11.0002H699.001C698.131 11.0002 697.681 9.96991 698.261 9.32753L706.441 0.327533ZM719.181 0.000205994C718.901 0.000205994 718.631 0.119059 718.441 0.327533L710.261 9.32753C709.681 9.96991 710.131 11.0002 711.001 11.0002H716.301C716.581 11.0002 716.851 10.8814 717.041 10.6729L725.221 1.67288C725.801 1.03051 725.351 0.000205994 724.481 0.000205994H719.181ZM730.441 0.327533C730.631 0.119059 730.901 0.000205994 731.181 0.000205994H736.481C737.351 0.000205994 737.801 1.03051 737.221 1.67288L729.041 10.6729C728.851 10.8814 728.581 11.0002 728.301 11.0002H723.001C722.131 11.0002 721.681 9.96991 722.261 9.32753L730.441 0.327533ZM743.181 0.000205994C742.901 0.000205994 742.631 0.119059 742.441 0.327533L734.261 9.32753C733.681 9.96991 734.131 11.0002 735.001 11.0002H740.301C740.581 11.0002 740.851 10.8814 741.041 10.6729L749.221 1.67288C749.801 1.03051 749.351 0.000205994 748.481 0.000205994H743.181ZM563.181 0.000205994C562.901 0.000205994 562.631 0.119059 562.441 0.327533L554.261 9.32753C553.681 9.96991 554.131 11.0002 555.001 11.0002H560.301C560.581 11.0002 560.851 10.8814 561.041 10.6729L569.221 1.67288C569.801 1.03051 569.351 0.000205994 568.481 0.000205994H563.181ZM574.441 0.327533C574.631 0.119059 574.901 0.000205994 575.181 0.000205994H580.481C581.351 0.000205994 581.801 1.03051 581.221 1.67288L573.041 10.6729C572.851 10.8814 572.581 11.0002 572.301 11.0002H567.001C566.131 11.0002 565.681 9.96991 566.261 9.32753L574.441 0.327533ZM587.181 0.000205994C586.901 0.000205994 586.631 0.119059 586.441 0.327533L578.261 9.32753C577.681 9.96991 578.131 11.0002 579.001 11.0002H584.301C584.581 11.0002 584.851 10.8814 585.041 10.6729L593.221 1.67288C593.801 1.03051 593.351 0.000205994 592.481 0.000205994H587.181ZM598.441 0.327533C598.631 0.119059 598.901 0.000205994 599.181 0.000205994H604.481C605.351 0.000205994 605.801 1.03051 605.221 1.67288L597.041 10.6729C596.851 10.8814 596.581 11.0002 596.301 11.0002H591.001C590.131 11.0002 589.681 9.96991 590.261 9.32753L598.441 0.327533ZM611.181 0.000205994C610.901 0.000205994 610.631 0.119059 610.441 0.327533L602.261 9.32753C601.681 9.96991 602.131 11.0002 603.001 11.0002H608.301C608.581 11.0002 608.851 10.8814 609.041 10.6729L617.221 1.67288C617.801 1.03051 617.351 0.000205994 616.481 0.000205994H611.181ZM622.441 0.327533C622.631 0.119059 622.901 0.000205994 623.181 0.000205994H628.481C629.351 0.000205994 629.801 1.03051 629.221 1.67288L621.041 10.6729C620.851 10.8814 620.581 11.0002 620.301 11.0002H615.001C614.131 11.0002 613.681 9.96991 614.261 9.32753L622.441 0.327533ZM635.181 0.000205994C634.901 0.000205994 634.631 0.119059 634.441 0.327533L626.261 9.32753C625.681 9.96991 626.131 11.0002 627.001 11.0002H632.301C632.581 11.0002 632.851 10.8814 633.041 10.6729L641.221 1.67288C641.801 1.03051 641.351 0.000205994 640.481 0.000205994H635.181ZM646.441 0.327533C646.631 0.119059 646.901 0.000205994 647.181 0.000205994H652.481C653.351 0.000205994 653.801 1.03051 653.221 1.67288L645.041 10.6729C644.851 10.8814 644.581 11.0002 644.301 11.0002H639.001C638.131 11.0002 637.681 9.96991 638.261 9.32753L646.441 0.327533ZM766.941 0.327327C767.131 0.118853 767.401 0 767.681 0H772.981C773.851 0 774.301 1.0303 773.721 1.67267L765.541 10.6727C765.351 10.8811 765.081 11 764.801 11H759.501C758.631 11 758.181 9.9697 758.761 9.32733L766.941 0.327327ZM779.681 0C779.401 0 779.131 0.118853 778.941 0.327327L770.761 9.32733C770.181 9.9697 770.631 11 771.501 11H776.801C777.081 11 777.351 10.8811 777.541 10.6727L785.721 1.67267C786.301 1.0303 785.851 0 784.981 0H779.681ZM790.941 0.327327C791.131 0.118853 791.401 0 791.681 0H796.981C797.851 0 798.301 1.0303 797.721 1.67267L789.541 10.6727C789.351 10.8811 789.081 11 788.801 11H783.501C782.631 11 782.181 9.9697 782.761 9.32733L790.941 0.327327ZM803.681 0C803.401 0 803.131 0.118853 802.941 0.327327L794.761 9.32733C794.181 9.9697 794.631 11 795.501 11H800.801C801.081 11 801.351 10.8811 801.541 10.6727L809.721 1.67267C810.301 1.0303 809.851 0 808.981 0H803.681ZM814.941 0.327327C815.131 0.118853 815.401 0 815.681 0H820.981C821.851 0 822.301 1.0303 821.721 1.67267L813.541 10.6727C813.351 10.8811 813.081 11 812.801 11H807.501C806.631 11 806.181 9.9697 806.761 9.32733L814.941 0.327327ZM936.181 0C935.901 0 935.631 0.118853 935.441 0.327327L927.261 9.32733C926.681 9.9697 927.131 11 928.001 11H933.301C933.581 11 933.851 10.8811 934.041 10.6727L942.221 1.67267C942.801 1.0303 942.351 0 941.481 0H936.181ZM947.441 0.327327C947.631 0.118853 947.901 0 948.181 0H953.481C954.351 0 954.801 1.0303 954.221 1.67267L946.041 10.6727C945.851 10.8811 945.581 11 945.301 11H940.001C939.131 11 938.681 9.9697 939.261 9.32733L947.441 0.327327ZM960.181 0C959.901 0 959.631 0.118853 959.441 0.327327L951.261 9.32733C950.681 9.9697 951.131 11 952.001 11H957.301C957.581 11 957.851 10.8811 958.041 10.6727L966.221 1.67267C966.801 1.0303 966.351 0 965.481 0H960.181ZM971.441 0.327327C971.631 0.118853 971.901 0 972.181 0H977.481C978.351 0 978.801 1.0303 978.221 1.67267L970.041 10.6727C969.851 10.8811 969.581 11 969.301 11H964.001C963.131 11 962.681 9.9697 963.261 9.32733L971.441 0.327327ZM984.181 0C983.901 0 983.631 0.118853 983.441 0.327327L975.261 9.32733C974.681 9.9697 975.131 11 976.001 11H981.301C981.581 11 981.851 10.8811 982.041 10.6727L990.221 1.67267C990.801 1.0303 990.351 0 989.481 0H984.181ZM995.441 0.327327C995.631 0.118853 995.901 0 996.181 0H1001.48C1002.35 0 1002.8 1.0303 1002.22 1.67267L994.041 10.6727C993.851 10.8811 993.581 11 993.301 11H988.001C987.131 11 986.681 9.9697 987.261 9.32733L995.441 0.327327ZM1008.18 0C1007.9 0 1007.63 0.118853 1007.44 0.327327L999.261 9.32733C998.681 9.9697 999.131 11 1000 11H1005.3C1005.58 11 1005.85 10.8811 1006.04 10.6727L1014.22 1.67267C1014.8 1.0303 1014.35 0 1013.48 0H1008.18ZM1019.44 0.327327C1019.63 0.118853 1019.9 0 1020.18 0H1025.48C1026.35 0 1026.8 1.0303 1026.22 1.67267L1018.04 10.6727C1017.85 10.8811 1017.58 11 1017.3 11H1012C1011.13 11 1010.68 9.9697 1011.26 9.32733L1019.44 0.327327ZM828.181 0C827.901 0 827.631 0.118853 827.441 0.327327L819.261 9.32733C818.681 9.9697 819.131 11 820.001 11H825.301C825.581 11 825.851 10.8811 826.041 10.6727L834.221 1.67267C834.801 1.0303 834.351 0 833.481 0H828.181ZM839.441 0.327327C839.631 0.118853 839.901 0 840.181 0H845.481C846.351 0 846.801 1.0303 846.221 1.67267L838.041 10.6727C837.851 10.8811 837.581 11 837.301 11H832.001C831.131 11 830.681 9.9697 831.261 9.32733L839.441 0.327327ZM852.181 0C851.901 0 851.631 0.118853 851.441 0.327327L843.261 9.32733C842.681 9.9697 843.131 11 844.001 11H849.301C849.581 11 849.851 10.8811 850.041 10.6727L858.221 1.67267C858.801 1.0303 858.351 0 857.481 0H852.181ZM863.441 0.327327C863.631 0.118853 863.901 0 864.181 0H869.481C870.351 0 870.801 1.0303 870.221 1.67267L862.041 10.6727C861.851 10.8811 861.581 11 861.301 11H856.001C855.131 11 854.681 9.9697 855.261 9.32733L863.441 0.327327ZM876.181 0C875.901 0 875.631 0.118853 875.441 0.327327L867.261 9.32733C866.681 9.9697 867.131 11 868.001 11H873.301C873.581 11 873.851 10.8811 874.041 10.6727L882.221 1.67267C882.801 1.0303 882.351 0 881.481 0H876.181ZM887.441 0.327327C887.631 0.118853 887.901 0 888.181 0H893.481C894.351 0 894.801 1.0303 894.221 1.67267L886.041 10.6727C885.851 10.8811 885.581 11 885.301 11H880.001C879.131 11 878.681 9.9697 879.261 9.32733L887.441 0.327327ZM900.181 0C899.901 0 899.631 0.118853 899.441 0.327327L891.261 9.32733C890.681 9.9697 891.131 11 892.001 11H897.301C897.581 11 897.851 10.8811 898.041 10.6727L906.221 1.67267C906.801 1.0303 906.351 0 905.481 0H900.181ZM911.441 0.327327C911.631 0.118853 911.901 0 912.181 0H917.481C918.351 0 918.801 1.0303 918.221 1.67267L910.041 10.6727C909.851 10.8811 909.581 11 909.301 11H904.001C903.131 11 902.681 9.9697 903.261 9.32733L911.441 0.327327ZM924.181 0C923.901 0 923.631 0.118853 923.441 0.327327L915.261 9.32733C914.681 9.9697 915.131 11 916.001 11H921.301C921.581 11 921.851 10.8811 922.041 10.6727L930.221 1.67267C930.801 1.0303 930.351 0 929.481 0H924.181Z" fill="url(#paint1_linear_201_164)"/>
</g>
<defs>
<linearGradient id="paint0_linear_201_164" x1="1787.59" y1="7.6942" x2="833.256" y2="7.69344" gradientUnits="userSpaceOnUse">
<stop stop-color="#FF0A35"/>
<stop offset="1" stop-color="#E1062C"/>
</linearGradient>
<linearGradient id="paint1_linear_201_164" x1="1787.59" y1="7.69413" x2="833.256" y2="7.69337" gradientUnits="userSpaceOnUse">
<stop stop-color="#FF0A35"/>
<stop offset="1" stop-color="#E1062C"/>
</linearGradient>
<clipPath id="clip0_201_164">
<rect width="2171" height="12" fill="white"/>
</clipPath>
</defs>
</svg>
